<svg width="65" height="39" viewBox="0 0 65 39" fill="none" xmlns="http://www.w3.org/2000/svg">
<g clip-path="url(#clip0_11_1205)">
<path d="M19.3125 1.50015C29.2545 1.50015 37.3125 9.55971 37.3125 19.5002C37.3125 29.4422 29.2546 37.5002 19.3125 37.5002C9.37209 37.5002 1.3125 29.4414 1.3125 19.5002C1.3125 9.55977 9.37212 1.50015 19.3125 1.50015Z" fill="#F5AC37" stroke="white" stroke-width="2"/>
<path d="M20.0127 20.8417H27.2324C27.3863 20.8417 27.459 20.8417 27.4701 20.6399C27.5291 19.9054 27.5291 19.1667 27.4701 18.4314C27.4701 18.2886 27.3992 18.2296 27.2444 18.2296H12.876C12.6981 18.2296 12.6503 18.2886 12.6503 18.4553V20.5689C12.6503 20.8417 12.6503 20.8417 12.935 20.8417H20.0127ZM26.6639 15.7595C26.6844 15.7056 26.6844 15.6466 26.6639 15.5936C26.5433 15.3311 26.4005 15.0806 26.2346 14.8455C25.985 14.4436 25.6909 14.0734 25.3557 13.7408C25.1975 13.5399 25.0145 13.3595 24.8093 13.2064C23.7816 12.3318 22.5598 11.7127 21.2465 11.4015C20.5839 11.2527 19.9067 11.1818 19.2278 11.1878H12.8512C12.6734 11.1878 12.6494 11.2587 12.6494 11.4135V15.6287C12.6494 15.8065 12.6494 15.8544 12.8751 15.8544H26.5784C26.5784 15.8544 26.6972 15.8305 26.7211 15.7595H26.663H26.6639ZM26.6639 23.3118C26.4621 23.2896 26.2586 23.2896 26.0568 23.3118H12.888C12.7101 23.3118 12.6503 23.3118 12.6503 23.5495V27.6706C12.6503 27.8604 12.6503 27.9083 12.888 27.9083H18.9679C19.2586 27.9305 19.5493 27.91 19.8341 27.8493C20.7164 27.786 21.5843 27.5945 22.4119 27.279C22.7129 27.1747 23.0036 27.0388 23.278 26.8755H23.361C24.7863 26.1342 25.9439 24.9696 26.6741 23.5401C26.6741 23.5401 26.7571 23.3605 26.6639 23.3135V23.3118ZM10.2639 30.045V29.974V27.2072V26.2693V23.4785C10.2639 23.3238 10.2639 23.3007 10.0741 23.3007H7.49713C7.35434 23.3007 7.29535 23.3007 7.29535 23.1109V20.8545H10.0502C10.2041 20.8545 10.2639 20.8545 10.2639 20.6527V18.4203C10.2639 18.2775 10.2639 18.2424 10.0741 18.2424H7.49713C7.35434 18.2424 7.29535 18.2424 7.29535 18.0526V15.963C7.29535 15.8322 7.29535 15.7971 7.48516 15.7971H10.0382C10.2161 15.7971 10.2639 15.7971 10.2639 15.5714V9.1708C10.2639 8.98099 10.2639 8.93311 10.5016 8.93311H19.4074C20.0538 8.95876 20.6959 9.02972 21.3312 9.14686C22.6402 9.38883 23.8979 9.85651 25.0479 10.5243C25.8106 10.9732 26.5125 11.5152 27.1375 12.1394C27.6078 12.6276 28.0319 13.156 28.4081 13.7186C28.7817 14.2889 29.0921 14.8985 29.3358 15.5355C29.3657 15.7014 29.5247 15.8134 29.6906 15.7851H31.8161C32.0889 15.7851 32.0889 15.7851 32.1009 16.0468V17.9945C32.1009 18.1843 32.0299 18.2322 31.8392 18.2322H30.2002C30.0343 18.2322 29.9864 18.2322 29.9984 18.4459C30.0634 19.1693 30.0634 19.8952 29.9984 20.6185C29.9984 20.8203 29.9984 20.8442 30.225 20.8442H32.1C32.1829 20.9511 32.1 21.058 32.1 21.1657C32.112 21.3034 32.112 21.4427 32.1 21.5804V23.0177C32.1 23.2194 32.041 23.2793 31.8623 23.2793H29.6179C29.4614 23.2494 29.3093 23.3494 29.2733 23.505C28.739 24.8944 27.884 26.1402 26.7793 27.1388C26.3757 27.5022 25.9516 27.8442 25.5087 28.1597C25.0334 28.4333 24.5708 28.718 24.0834 28.9437C23.1865 29.3473 22.246 29.6448 21.2807 29.8338C20.3642 29.9979 19.4348 30.0723 18.5019 30.0595H10.2605V30.0475L10.2639 30.045Z" fill="#FEFEFD"/>
</g>
<g clip-path="url(#clip1_11_1205)">
<path d="M63.3125 19.5002C63.3125 29.4413 55.2536 37.5002 45.3125 37.5002C35.3714 37.5002 27.3125 29.4413 27.3125 19.5002C27.3125 9.55903 35.3714 1.50015 45.3125 1.50015C55.2536 1.50015 63.3125 9.55903 63.3125 19.5002Z" fill="#172852" stroke="white" stroke-width="2"/>
<path d="M41.617 8.99125C43.8419 8.15905 46.3461 8.15715 48.6128 8.84115C51.5635 9.75695 54.0544 11.9837 55.3559 14.7786C55.715 15.5747 56.0589 16.405 56.0931 17.2904C54.4344 16.329 52.6161 15.7058 50.794 15.1377C47.8794 14.087 44.828 13.3574 42.0692 11.9134C41.427 11.5296 40.6081 11.1363 40.4333 10.3364C40.363 9.64485 41.0945 9.25915 41.617 8.99125Z" fill="#FFD83D"/>
<path d="M34.9005 15.7173C35.5446 13.9693 36.601 12.3467 38.0355 11.144C38.4003 14.1441 39.6771 17.0435 41.7861 19.2247C44.315 21.8524 47.9174 23.4655 51.5825 23.4047C53.0379 23.4503 54.461 23.114 55.8803 22.8423C54.4838 27.8887 48.9529 31.2384 43.8286 30.4328C40.7354 30.0376 37.8797 28.206 36.1564 25.6201C34.2127 22.7625 33.7225 18.9682 34.9005 15.7173Z" fill="#FFD83D"/>
<path d="M50.794 15.1378C52.6161 15.7059 54.4344 16.3291 56.0931 17.2905L56.2052 17.3494C56.3591 18.5065 56.4712 19.6864 56.266 20.8454C55.4319 20.492 54.7555 19.8707 54.0487 19.3216C52.6883 18.1892 51.2994 16.8934 50.794 15.1378Z" fill="#FF6F03"/>
</g>
<defs>
<clipPath id="clip0_11_1205">
<rect width="38" height="38" fill="white" transform="translate(0.3125 0.500153)"/>
</clipPath>
<clipPath id="clip1_11_1205">
<rect width="38" height="38" fill="white" transform="translate(26.3125 0.500153)"/>
</clipPath>
</defs>
</svg>
