<svg width="65" height="39" viewBox="0 0 65 39" fill="none" xmlns="http://www.w3.org/2000/svg">
<g clip-path="url(#clip0_11_1467)">
<path d="M19.4375 38.5002C29.9309 38.5002 38.4375 29.9936 38.4375 19.5002C38.4375 9.00674 29.9309 0.500153 19.4375 0.500153C8.94409 0.500153 0.4375 9.00674 0.4375 19.5002C0.4375 29.9936 8.94409 38.5002 19.4375 38.5002Z" fill="#345D9D"/>
<path d="M19.7595 20.1442L17.7813 26.8149H28.3625C28.4325 26.8125 28.5024 26.8238 28.5681 26.8484C28.6338 26.873 28.694 26.9103 28.7453 26.9581C28.7966 27.006 28.8379 27.0635 28.8669 27.1273C28.896 27.1911 28.9121 27.2601 28.9145 27.3302V27.505L27.9944 30.6793C27.9538 30.8294 27.8634 30.9613 27.738 31.0533C27.6126 31.1452 27.4597 31.1918 27.3043 31.1854H11.1106L13.8249 21.9384L10.7886 22.8585L11.4787 20.7423L14.515 19.8222L18.3334 6.84882C18.3754 6.69955 18.4662 6.56863 18.5913 6.47692C18.7163 6.38522 18.8685 6.33799 19.0235 6.34277H23.1179C23.188 6.34031 23.2579 6.35169 23.3236 6.37626C23.3893 6.40083 23.4495 6.43811 23.5007 6.48596C23.552 6.53382 23.5933 6.59131 23.6224 6.65515C23.6514 6.71899 23.6676 6.78793 23.67 6.85802V7.03284L20.4496 17.982L23.4859 17.0619L22.8419 19.2701L19.7595 20.1442Z" fill="white"/>
</g>
<mask id="mask0_11_1467" style="mask-type:alpha" maskUnits="userSpaceOnUse" x="26" y="0" width="39" height="39">
<path fillRule="evenodd" clipRule="evenodd" d="M26.4375 0.500153H64.4375V38.5002H26.4375V0.500153Z" fill="white"/>
</mask>
<g mask="url(#mask0_11_1467)">
<path d="M45.5234 1.50007C55.422 1.59006 63.4351 9.59522 63.4375 19.6855C63.3451 29.4918 55.3352 37.5001 45.4375 37.5001C35.5445 37.5001 27.44 29.4035 27.4375 19.4097C27.53 9.5001 35.5459 1.41018 45.5234 1.50007ZM45.5234 1.50007L45.5325 0.500113M45.5234 1.50007L45.5325 0.500113M45.5325 0.500113C34.9875 0.405113 26.5325 8.95511 26.4375 19.4051L64.4375 19.6901C64.4375 9.05011 55.9825 0.595113 45.5325 0.500113Z" fill="#0090FF" stroke="white" stroke-width="2"/>
<path fillRule="evenodd" clipRule="evenodd" d="M47.2425 17.2202L46.6725 20.2602L52.0875 21.0202L51.7075 22.4452L46.3875 21.6852C46.0075 22.9202 45.8175 24.2502 45.3425 25.3902C44.8675 26.7202 44.3925 28.0502 43.8225 29.2852C43.0625 30.9002 41.7325 32.0402 39.9275 32.3252C38.8825 32.5152 37.7425 32.4202 36.8875 31.7552C36.6025 31.5652 36.3175 31.1852 36.3175 30.9002C36.3175 30.5202 36.5075 30.0452 36.7925 29.8552C36.9825 29.7602 37.4575 29.8552 37.7425 29.9502C38.0275 30.2352 38.3125 30.6152 38.5025 30.9952C39.0725 31.7552 39.8325 31.8502 40.5925 31.2802C41.4475 30.5202 41.9225 29.4752 42.2075 28.4302C42.7775 26.1502 43.3475 23.9652 43.8225 21.6852V21.3052L38.7875 20.5452L38.9775 19.1202L44.2025 19.8802L44.8675 16.9352L39.4525 16.0802L39.6425 14.5602L45.2475 15.3202C45.4375 14.7502 45.5325 14.2752 45.7225 13.8002C46.1975 12.0902 46.6725 10.3802 47.8125 8.86016C48.9525 7.34016 50.2825 6.39016 52.2775 6.48516C53.1325 6.48516 53.9875 6.77016 54.5575 7.43516C54.6525 7.53016 54.8425 7.72016 54.8425 7.91016C54.8425 8.29016 54.8425 8.76516 54.5575 9.05016C54.1775 9.33516 53.7025 9.24016 53.3225 8.86016C53.0375 8.57516 52.8475 8.29016 52.5625 8.00516C51.9925 7.24516 51.1375 7.15016 50.4725 7.81516C49.9975 8.29016 49.5225 8.95516 49.2375 9.62016C48.5725 11.6152 48.0975 13.7052 47.4325 15.7952L52.6575 16.5552L52.2775 17.9802L47.2425 17.2202Z" fill="white"/>
</g>
<defs>
<clipPath id="clip0_11_1467">
<rect width="38" height="38" fill="white" transform="translate(0.4375 0.500153)"/>
</clipPath>
</defs>
</svg>
