<svg width="65" height="39" viewBox="0 0 65 39" fill="none" xmlns="http://www.w3.org/2000/svg">
<g clip-path="url(#clip0_68_982)">
<path d="M19.2755 38.5C29.7484 38.5 38.2384 29.9934 38.2384 19.5C38.2384 9.00662 29.7484 0.500031 19.2755 0.500031C8.80251 0.500031 0.3125 9.00662 0.3125 19.5C0.3125 29.9934 8.80251 38.5 19.2755 38.5Z" fill="#F3BA2F"/>
<path d="M14.6722 17.6048L19.2754 12.9925L23.8811 17.6072L26.5596 14.9234L19.2754 7.62503L11.9937 14.921L14.6722 17.6048ZM7.42358 19.5L10.1021 16.8163L12.7806 19.5L10.1021 22.1838L7.42358 19.5ZM14.6722 21.3953L19.2754 26.0075L23.8811 21.3929L26.5596 24.0755L19.2754 31.375L11.9937 24.079L11.9901 24.0755L14.6722 21.3953ZM25.7703 19.5L28.4488 16.8163L31.1273 19.5L28.4488 22.1838L25.7703 19.5ZM21.9919 19.4977H21.9943V19.5L19.2754 22.2242L16.5602 19.5048L16.5554 19.5L16.5602 19.4965L17.0354 19.0191L17.2665 18.7875L19.2754 16.7759L21.9931 19.4988L21.9919 19.4977Z" fill="white"/>
</g>
<g clip-path="url(#clip1_68_982)">
<path d="M63.3125 19.5C63.3125 29.443 55.2684 37.5 45.3496 37.5C35.4307 37.5 27.3866 29.443 27.3866 19.5C27.3866 9.55707 35.4307 1.50003 45.3496 1.50003C55.2684 1.50003 63.3125 9.55707 63.3125 19.5Z" fill="#F0B90B" stroke="white" stroke-width="2"/>
<path d="M45.2138 6.26194L48.4775 9.61088L40.2591 17.8453L36.9954 14.5752L45.2138 6.26194Z" fill="white"/>
<path d="M50.1684 11.2265L53.4322 14.5754L40.2591 27.7742L36.9954 24.504L50.1684 11.2265Z" fill="white"/>
<path d="M35.3043 16.1906L38.5681 19.5396L35.3043 22.8097L32.0405 19.5396L35.3043 16.1906Z" fill="white"/>
<path d="M55.1228 16.1906L58.3866 19.5396L45.2135 32.7383L41.9498 29.4682L55.1228 16.1906Z" fill="white"/>
</g>
<defs>
<clipPath id="clip0_68_982">
<rect width="37.9259" height="38" fill="white" transform="translate(0.3125 0.500031)"/>
</clipPath>
<clipPath id="clip1_68_982">
<rect width="37.9259" height="38" fill="white" transform="translate(26.3866 0.500031)"/>
</clipPath>
</defs>
</svg>
