<svg width="35" height="35" viewBox="0 0 35 35" fill="none" xmlns="http://www.w3.org/2000/svg">
<path fillRule="evenodd" clipRule="evenodd" d="M17.5 0C27.1585 0 35 7.8415 35 17.5C35 27.1585 27.1585 35 17.5 35C7.8415 35 0 27.1585 0 17.5C0 7.8415 7.8415 0 17.5 0ZM14.2975 26.7313C22.0587 26.7313 26.3025 20.3 26.3025 14.7262C26.3025 14.5425 26.3025 14.3588 26.2938 14.1838C27.1163 13.5888 27.8338 12.845 28.4025 11.9963C27.65 12.3288 26.8363 12.5563 25.9788 12.6613C26.8538 12.1363 27.5187 11.3137 27.8337 10.325C27.02 10.8062 26.1187 11.1563 25.1562 11.3488C24.3863 10.5263 23.2925 10.0187 22.0763 10.0187C19.7487 10.0187 17.8587 11.9087 17.8587 14.2362C17.8587 14.5687 17.8937 14.8925 17.9725 15.1987C14.4637 15.0237 11.3575 13.3438 9.275 10.7888C8.91625 11.41 8.70625 12.1363 8.70625 12.9063C8.70625 14.3675 9.45 15.6625 10.5875 16.415C9.89625 16.3975 9.24875 16.205 8.68 15.89V15.9425C8.68 17.99 10.1325 19.6875 12.0662 20.0813C11.7162 20.1775 11.34 20.23 10.955 20.23C10.6837 20.23 10.4213 20.2037 10.1588 20.1512C10.6925 21.8312 12.25 23.0475 14.0962 23.0825C12.6525 24.2113 10.8325 24.885 8.855 24.885C8.51375 24.885 8.18125 24.8675 7.84875 24.8237C9.695 26.0312 11.9175 26.7313 14.2975 26.7313V26.7313Z" fill="black"/>
</svg>
