<?xml version="1.0" standalone="no"?>
<!DOCTYPE svg PUBLIC "-//W3C//DTD SVG 20010904//EN"
 "http://www.w3.org/TR/2001/REC-SVG-20010904/DTD/svg10.dtd">
<svg version="1.0" xmlns="http://www.w3.org/2000/svg"
 width="181.000000pt" height="181.000000pt" viewBox="0 0 181.000000 181.000000"
 preserveAspectRatio="xMidYMid meet">
<metadata>
Created by potrace 1.14, written by Peter Selinger 2001-2017
</metadata>
<g transform="translate(0.000000,181.000000) scale(0.100000,-0.100000)"
fill="#000000" stroke="none">
<path d="M916 1740 c-54 -16 -116 -98 -116 -152 0 -13 -4 -18 -8 -12 -27 39
-111 56 -167 35 -17 -7 -14 -9 15 -15 39 -7 71 -31 89 -63 6 -12 11 -24 11
-26 0 -5 -125 -19 -160 -18 -14 1 -54 3 -90 5 -72 4 -134 -19 -179 -67 -13
-15 -44 -31 -74 -38 -41 -10 -63 -23 -108 -68 -93 -93 -131 -209 -125 -376 5
-111 9 -135 36 -211 19 -55 28 -71 71 -121 49 -58 115 -76 155 -42 18 14 17
15 32 -46 7 -27 28 -82 47 -121 60 -126 224 -266 370 -319 69 -24 209 -29 277
-9 112 33 204 90 311 193 65 63 107 129 133 213 15 49 20 56 35 47 60 -32 150
26 204 131 61 119 80 349 40 475 -47 146 -143 252 -246 270 -18 3 -51 23 -74
44 -62 57 -146 78 -225 59 -32 -9 -220 -11 -228 -4 -8 9 28 74 58 103 37 36
35 46 -10 45 -35 -1 -93 -34 -115 -65 -14 -21 -15 -20 -15 18 0 49 29 99 72
125 35 21 31 24 -16 10z"/>
</g>
</svg>
