<svg width="22" height="16" viewBox="0 0 22 16" fill="none" xmlns="http://www.w3.org/2000/svg">
<path d="M18.6526 1.35155C18.6465 1.34024 18.6363 1.33138 18.624 1.32656C17.1976 0.701862 15.6924 0.256406 14.1459 0.00133678C14.1319 -0.00115648 14.1174 0.000642184 14.1044 0.00647696C14.0915 0.0123117 14.0809 0.0218855 14.074 0.0338369C13.869 0.388941 13.683 0.753692 13.5165 1.1267C11.8495 0.885154 10.1539 0.885154 8.48694 1.1267C8.31938 0.752745 8.13033 0.387903 7.92066 0.0338369C7.91347 0.0221453 7.90275 0.0127919 7.88991 0.00699508C7.87707 0.00119821 7.8627 -0.000773528 7.84867 0.00133678C6.30207 0.255871 4.79673 0.70136 3.37053 1.32659C3.35833 1.33153 3.34802 1.33997 3.34105 1.35073C0.488935 5.41639 -0.292367 9.38208 0.0909135 13.2987C0.0919917 13.3083 0.0950813 13.3176 0.0999984 13.326C0.104915 13.3344 0.11156 13.3418 0.119536 13.3478C1.7803 14.5215 3.63788 15.4175 5.61301 15.9974C5.62692 16.0014 5.64177 16.0012 5.65557 15.9969C5.66937 15.9926 5.68145 15.9843 5.6902 15.9732C6.11441 15.4223 6.4903 14.8388 6.81403 14.2289C6.81848 14.2205 6.82102 14.2113 6.82148 14.202C6.82195 14.1926 6.82033 14.1832 6.81672 14.1745C6.81312 14.1658 6.80762 14.1578 6.80059 14.1513C6.79355 14.1447 6.78514 14.1397 6.77591 14.1364C6.18316 13.92 5.60931 13.659 5.05975 13.356C5.04977 13.3504 5.04138 13.3425 5.03534 13.3331C5.02929 13.3237 5.02577 13.313 5.02509 13.3019C5.0244 13.2909 5.02658 13.2799 5.03142 13.2698C5.03625 13.2598 5.04361 13.251 5.05283 13.2443C5.16814 13.1619 5.28353 13.0761 5.39364 12.9894C5.40343 12.9818 5.41526 12.9768 5.42782 12.9752C5.44038 12.9736 5.45317 12.9754 5.46473 12.9803C9.06515 14.5488 12.9631 14.5488 16.5209 12.9803C16.5325 12.975 16.5454 12.973 16.5581 12.9745C16.5709 12.976 16.5829 12.9809 16.5929 12.9886C16.703 13.0753 16.8184 13.1619 16.9346 13.2443C16.9438 13.251 16.9512 13.2597 16.9562 13.2697C16.9611 13.2797 16.9633 13.2907 16.9627 13.3017C16.9621 13.3127 16.9587 13.3235 16.9527 13.3329C16.9468 13.3424 16.9384 13.3503 16.9285 13.356C16.3802 13.6615 15.8058 13.9223 15.2115 14.1356C15.2023 14.139 15.1939 14.1442 15.1869 14.1508C15.1799 14.1575 15.1745 14.1655 15.171 14.1743C15.1674 14.1831 15.1659 14.1925 15.1664 14.2019C15.167 14.2113 15.1696 14.2205 15.1741 14.2289C15.5033 14.8354 15.8786 15.4181 16.2971 15.9723C16.3056 15.9836 16.3176 15.9922 16.3314 15.9967C16.3453 16.0011 16.3603 16.0014 16.3743 15.9973C18.3529 15.4193 20.2138 14.5233 21.8766 13.3478C21.8847 13.3421 21.8914 13.3349 21.8964 13.3266C21.9013 13.3182 21.9043 13.309 21.9052 13.2995C22.3641 8.7715 21.137 4.83832 18.6526 1.35155ZM7.35172 10.9139C6.26773 10.9139 5.37456 9.96433 5.37456 8.79818C5.37456 7.63204 6.25041 6.68243 7.35172 6.68243C8.46164 6.68243 9.34618 7.64029 9.32885 8.79811C9.32885 9.96433 8.45296 10.9139 7.35172 10.9139ZM14.6619 10.9139C13.5779 10.9139 12.6848 9.96433 12.6848 8.79818C12.6848 7.63204 13.5606 6.68243 14.6619 6.68243C15.7719 6.68243 16.6564 7.64029 16.639 8.79811C16.639 9.96433 15.7719 10.9139 14.6619 10.9139Z" fill="white"/>
</svg>
