<svg width="207" height="45" viewBox="0 0 207 45" fill="none" xmlns="http://www.w3.org/2000/svg">
<path d="M12.0414 45.0001V18.9339L33.291 16.6672L35.416 30.4087L12.0414 45.0001Z" fill="#F4793F"/>
<path d="M0 1.36744V22.1921C0 22.1921 13.2104 18.957 21.1079 21.3421C31.8744 24.5936 35.416 30.2669 35.416 30.2669V7.17566C35.416 7.17566 29.1828 1.79248 20.258 0.375789C12.4352 -0.865961 0 1.36744 0 1.36744Z" fill="#F6C325"/>
<path d="M54.732 18.754C54.666 18.862 54.597 18.943 54.525 18.997C54.453 19.045 54.363 19.069 54.255 19.069C54.141 19.069 54.012 19.021 53.868 18.925C53.73 18.829 53.556 18.724 53.346 18.61C53.142 18.49 52.899 18.382 52.617 18.286C52.335 18.184 51.999 18.133 51.609 18.133C51.249 18.133 50.931 18.178 50.655 18.268C50.385 18.358 50.157 18.484 49.971 18.646C49.785 18.808 49.644 19 49.548 19.222C49.458 19.438 49.413 19.675 49.413 19.933C49.413 20.263 49.5 20.539 49.674 20.761C49.848 20.977 50.076 21.163 50.358 21.319C50.646 21.475 50.973 21.613 51.339 21.733C51.705 21.847 52.077 21.97 52.455 22.102C52.839 22.234 53.214 22.384 53.58 22.552C53.946 22.72 54.27 22.933 54.552 23.191C54.84 23.449 55.071 23.764 55.245 24.136C55.419 24.508 55.506 24.961 55.506 25.495C55.506 26.071 55.407 26.611 55.209 27.115C55.011 27.619 54.723 28.06 54.345 28.438C53.973 28.81 53.511 29.104 52.959 29.32C52.413 29.536 51.789 29.644 51.087 29.644C50.673 29.644 50.268 29.602 49.872 29.518C49.482 29.44 49.107 29.329 48.747 29.185C48.393 29.035 48.06 28.855 47.748 28.645C47.436 28.435 47.157 28.201 46.911 27.943L47.523 26.935C47.577 26.851 47.646 26.785 47.73 26.737C47.814 26.689 47.907 26.665 48.009 26.665C48.147 26.665 48.3 26.731 48.468 26.863C48.636 26.989 48.837 27.13 49.071 27.286C49.311 27.436 49.599 27.577 49.935 27.709C50.271 27.835 50.673 27.898 51.141 27.898C51.903 27.898 52.491 27.712 52.905 27.34C53.325 26.968 53.535 26.455 53.535 25.801C53.535 25.435 53.448 25.138 53.274 24.91C53.1 24.676 52.869 24.481 52.581 24.325C52.299 24.169 51.975 24.037 51.609 23.929C51.243 23.821 50.871 23.707 50.493 23.587C50.115 23.461 49.743 23.317 49.377 23.155C49.011 22.987 48.684 22.771 48.396 22.507C48.114 22.237 47.886 21.907 47.712 21.517C47.538 21.121 47.451 20.629 47.451 20.041C47.451 19.573 47.541 19.12 47.721 18.682C47.907 18.244 48.174 17.857 48.522 17.521C48.876 17.179 49.311 16.906 49.827 16.702C50.343 16.498 50.931 16.396 51.591 16.396C52.335 16.396 53.016 16.513 53.634 16.747C54.258 16.981 54.795 17.314 55.245 17.746L54.732 18.754ZM59.9599 29.644C59.1979 29.644 58.6099 29.431 58.1959 29.005C57.7879 28.573 57.5839 27.967 57.5839 27.187V21.841H56.5759C56.4679 21.841 56.3749 21.808 56.2969 21.742C56.2189 21.67 56.1799 21.565 56.1799 21.427V20.644L57.6649 20.428L58.0879 17.773C58.1179 17.671 58.1689 17.59 58.2409 17.53C58.3129 17.464 58.4089 17.431 58.5289 17.431H59.5189V20.446H62.0659V21.841H59.5189V27.052C59.5189 27.382 59.5999 27.634 59.7619 27.808C59.9239 27.982 60.1399 28.069 60.4099 28.069C60.5599 28.069 60.6889 28.051 60.7969 28.015C60.9049 27.973 60.9979 27.931 61.0759 27.889C61.1539 27.841 61.2199 27.799 61.2739 27.763C61.3339 27.721 61.3909 27.7 61.4449 27.7C61.5529 27.7 61.6399 27.76 61.7059 27.88L62.2819 28.825C61.9819 29.089 61.6279 29.293 61.2199 29.437C60.8119 29.575 60.3919 29.644 59.9599 29.644ZM68.4961 25.486C67.8061 25.51 67.2241 25.567 66.7501 25.657C66.2761 25.741 65.8921 25.852 65.5981 25.99C65.3041 26.122 65.0911 26.281 64.9591 26.467C64.8331 26.653 64.7701 26.857 64.7701 27.079C64.7701 27.295 64.8031 27.481 64.8691 27.637C64.9411 27.787 65.0371 27.913 65.1571 28.015C65.2831 28.111 65.4271 28.183 65.5891 28.231C65.7571 28.273 65.9401 28.294 66.1381 28.294C66.6421 28.294 67.0741 28.201 67.4341 28.015C67.8001 27.823 68.1541 27.547 68.4961 27.187V25.486ZM63.3661 21.598C64.4041 20.632 65.6401 20.149 67.0741 20.149C67.6021 20.149 68.0701 20.236 68.4781 20.41C68.8921 20.578 69.2371 20.818 69.5131 21.13C69.7951 21.442 70.0081 21.814 70.1521 22.246C70.3021 22.672 70.3771 23.146 70.3771 23.668V29.5H69.5131C69.3271 29.5 69.1861 29.473 69.0901 29.419C68.9941 29.359 68.9131 29.242 68.8471 29.068L68.6581 28.321C68.4241 28.531 68.1931 28.72 67.9651 28.888C67.7371 29.05 67.5001 29.188 67.2541 29.302C67.0141 29.416 66.7531 29.5 66.4711 29.554C66.1951 29.614 65.8891 29.644 65.5531 29.644C65.1811 29.644 64.8331 29.593 64.5091 29.491C64.1911 29.389 63.9151 29.236 63.6811 29.032C63.4471 28.822 63.2611 28.564 63.1231 28.258C62.9911 27.952 62.9251 27.592 62.9251 27.178C62.9251 26.824 63.0181 26.479 63.2041 26.143C63.3961 25.807 63.7081 25.507 64.1401 25.243C64.5781 24.973 65.1511 24.751 65.8591 24.577C66.5731 24.403 67.4521 24.304 68.4961 24.28V23.668C68.4961 23.008 68.3551 22.516 68.0731 22.192C67.7911 21.868 67.3771 21.706 66.8311 21.706C66.4591 21.706 66.1471 21.754 65.8951 21.85C65.6431 21.94 65.4241 22.039 65.2381 22.147C65.0521 22.255 64.8871 22.357 64.7431 22.453C64.5991 22.543 64.4461 22.588 64.2841 22.588C64.1521 22.588 64.0381 22.555 63.9421 22.489C63.8521 22.417 63.7771 22.33 63.7171 22.228L63.3661 21.598ZM74.5788 16.18V23.902H74.9928C75.1248 23.902 75.2328 23.884 75.3168 23.848C75.4008 23.812 75.4878 23.737 75.5778 23.623L78.1518 20.68C78.2418 20.56 78.3408 20.47 78.4488 20.41C78.5568 20.35 78.6948 20.32 78.8628 20.32H80.6178L77.5218 23.812C77.3418 24.046 77.1438 24.232 76.9278 24.37C77.0478 24.454 77.1528 24.55 77.2428 24.658C77.3328 24.76 77.4198 24.877 77.5038 25.009L80.8068 29.5H79.0788C78.9228 29.5 78.7878 29.476 78.6738 29.428C78.5658 29.374 78.4698 29.278 78.3858 29.14L75.7308 25.54C75.6408 25.402 75.5508 25.315 75.4608 25.279C75.3708 25.237 75.2358 25.216 75.0558 25.216H74.5788V29.5H72.6438V16.18H74.5788ZM84.0641 20.32V29.5H82.1291V20.32H84.0641ZM84.3881 17.548C84.3881 17.722 84.3521 17.887 84.2801 18.043C84.2141 18.199 84.1211 18.337 84.0011 18.457C83.8811 18.571 83.7401 18.664 83.5781 18.736C83.4221 18.802 83.2541 18.835 83.0741 18.835C82.9001 18.835 82.7351 18.802 82.5791 18.736C82.4291 18.664 82.2971 18.571 82.1831 18.457C82.0691 18.337 81.9761 18.199 81.9041 18.043C81.8381 17.887 81.8051 17.722 81.8051 17.548C81.8051 17.368 81.8381 17.2 81.9041 17.044C81.9761 16.888 82.0691 16.753 82.1831 16.639C82.2971 16.519 82.4291 16.426 82.5791 16.36C82.7351 16.288 82.9001 16.252 83.0741 16.252C83.2541 16.252 83.4221 16.288 83.5781 16.36C83.7401 16.426 83.8811 16.519 84.0011 16.639C84.1211 16.753 84.2141 16.888 84.2801 17.044C84.3521 17.2 84.3881 17.368 84.3881 17.548ZM88.3044 21.535C88.5024 21.331 88.7064 21.148 88.9164 20.986C89.1324 20.818 89.3604 20.674 89.6004 20.554C89.8404 20.434 90.0954 20.341 90.3654 20.275C90.6354 20.209 90.9294 20.176 91.2474 20.176C91.7514 20.176 92.1924 20.26 92.5704 20.428C92.9544 20.596 93.2754 20.833 93.5334 21.139C93.7974 21.445 93.9954 21.814 94.1274 22.246C94.2594 22.672 94.3254 23.143 94.3254 23.659V29.5H92.3994V23.659C92.3994 23.041 92.2554 22.561 91.9674 22.219C91.6854 21.877 91.2534 21.706 90.6714 21.706C90.2394 21.706 89.8374 21.805 89.4654 22.003C89.0994 22.201 88.7544 22.471 88.4304 22.813V29.5H86.4954V20.32H87.6654C87.9294 20.32 88.0974 20.443 88.1694 20.689L88.3044 21.535ZM99.8613 24.829C100.461 24.829 100.911 24.676 101.211 24.37C101.511 24.064 101.661 23.665 101.661 23.173C101.661 22.669 101.511 22.27 101.211 21.976C100.911 21.682 100.461 21.535 99.8613 21.535C99.2673 21.535 98.8173 21.682 98.5113 21.976C98.2113 22.27 98.0613 22.669 98.0613 23.173C98.0613 23.413 98.1003 23.635 98.1783 23.839C98.2563 24.043 98.3703 24.22 98.5203 24.37C98.6703 24.514 98.8563 24.628 99.0783 24.712C99.3063 24.79 99.5673 24.829 99.8613 24.829ZM102.552 29.95C102.552 29.746 102.492 29.584 102.372 29.464C102.258 29.338 102.102 29.242 101.904 29.176C101.706 29.104 101.475 29.053 101.211 29.023C100.947 28.987 100.665 28.963 100.365 28.951C100.071 28.933 99.7683 28.918 99.4563 28.906C99.1503 28.888 98.8533 28.858 98.5653 28.816C98.2773 28.966 98.0403 29.146 97.8543 29.356C97.6743 29.566 97.5843 29.809 97.5843 30.085C97.5843 30.265 97.6293 30.433 97.7192 30.589C97.8153 30.745 97.9593 30.88 98.1513 30.994C98.3493 31.108 98.5983 31.198 98.8983 31.264C99.2043 31.33 99.5703 31.363 99.9963 31.363C100.848 31.363 101.487 31.231 101.913 30.967C102.339 30.703 102.552 30.364 102.552 29.95ZM104.496 20.653V21.373C104.496 21.613 104.352 21.76 104.064 21.814L103.146 21.967C103.302 22.315 103.38 22.702 103.38 23.128C103.38 23.578 103.29 23.986 103.11 24.352C102.936 24.718 102.693 25.03 102.381 25.288C102.069 25.546 101.697 25.744 101.265 25.882C100.833 26.02 100.365 26.089 99.8613 26.089C99.6693 26.089 99.4803 26.08 99.2943 26.062C99.1143 26.038 98.9373 26.008 98.7633 25.972C98.5893 26.074 98.4603 26.182 98.3763 26.296C98.2923 26.41 98.2503 26.527 98.2503 26.647C98.2503 26.845 98.3373 26.992 98.5113 27.088C98.6853 27.184 98.9133 27.253 99.1953 27.295C99.4833 27.337 99.8103 27.364 100.176 27.376C100.542 27.388 100.914 27.409 101.292 27.439C101.67 27.469 102.042 27.52 102.408 27.592C102.774 27.658 103.098 27.772 103.38 27.934C103.668 28.09 103.899 28.303 104.073 28.573C104.247 28.843 104.334 29.194 104.334 29.626C104.334 30.022 104.235 30.409 104.037 30.787C103.839 31.165 103.551 31.501 103.173 31.795C102.801 32.089 102.345 32.323 101.805 32.497C101.265 32.677 100.65 32.767 99.9603 32.767C99.2763 32.767 98.6793 32.701 98.1693 32.569C97.6653 32.437 97.2423 32.257 96.9003 32.029C96.5643 31.807 96.3123 31.549 96.1443 31.255C95.9823 30.961 95.9013 30.655 95.9013 30.337C95.9013 29.905 96.0363 29.536 96.3063 29.23C96.5823 28.924 96.9543 28.684 97.4223 28.51C97.1703 28.39 96.9663 28.225 96.8103 28.015C96.6603 27.805 96.5853 27.529 96.5853 27.187C96.5853 26.917 96.6843 26.635 96.8823 26.341C97.0803 26.047 97.3773 25.798 97.7733 25.594C97.3173 25.342 96.9573 25.009 96.6933 24.595C96.4293 24.175 96.2973 23.686 96.2973 23.128C96.2973 22.672 96.3843 22.261 96.5583 21.895C96.7383 21.529 96.9873 21.217 97.3053 20.959C97.6233 20.701 97.9983 20.503 98.4303 20.365C98.8683 20.227 99.3453 20.158 99.8613 20.158C100.653 20.158 101.343 20.323 101.931 20.653H104.496ZM114.899 23.146C115.367 23.146 115.778 23.086 116.132 22.966C116.492 22.846 116.789 22.678 117.023 22.462C117.263 22.24 117.443 21.973 117.563 21.661C117.683 21.349 117.743 21.001 117.743 20.617C117.743 20.239 117.683 19.9 117.563 19.6C117.449 19.3 117.275 19.045 117.041 18.835C116.807 18.625 116.51 18.466 116.15 18.358C115.796 18.244 115.379 18.187 114.899 18.187H112.973V23.146H114.899ZM114.899 16.54C115.745 16.54 116.477 16.639 117.095 16.837C117.719 17.035 118.232 17.314 118.634 17.674C119.042 18.028 119.345 18.457 119.543 18.961C119.741 19.459 119.84 20.011 119.84 20.617C119.84 21.235 119.735 21.802 119.525 22.318C119.315 22.828 119.003 23.269 118.589 23.641C118.175 24.007 117.659 24.295 117.041 24.505C116.429 24.709 115.715 24.811 114.899 24.811H112.973V29.5H110.867V16.54H114.899ZM125.005 20.176C125.683 20.176 126.295 20.287 126.841 20.509C127.393 20.731 127.861 21.046 128.245 21.454C128.635 21.862 128.935 22.357 129.145 22.939C129.355 23.521 129.46 24.175 129.46 24.901C129.46 25.627 129.355 26.281 129.145 26.863C128.935 27.445 128.635 27.943 128.245 28.357C127.861 28.765 127.393 29.08 126.841 29.302C126.295 29.524 125.683 29.635 125.005 29.635C124.321 29.635 123.703 29.524 123.151 29.302C122.605 29.08 122.137 28.765 121.747 28.357C121.357 27.943 121.057 27.445 120.847 26.863C120.637 26.281 120.532 25.627 120.532 24.901C120.532 24.175 120.637 23.521 120.847 22.939C121.057 22.357 121.357 21.862 121.747 21.454C122.137 21.046 122.605 20.731 123.151 20.509C123.703 20.287 124.321 20.176 125.005 20.176ZM125.005 28.123C125.833 28.123 126.448 27.847 126.85 27.295C127.258 26.737 127.462 25.942 127.462 24.91C127.462 23.878 127.258 23.083 126.85 22.525C126.448 21.961 125.833 21.679 125.005 21.679C124.165 21.679 123.541 21.961 123.133 22.525C122.725 23.083 122.521 23.878 122.521 24.91C122.521 25.942 122.725 26.737 123.133 27.295C123.541 27.847 124.165 28.123 125.005 28.123ZM135.289 20.176C135.967 20.176 136.579 20.287 137.125 20.509C137.677 20.731 138.145 21.046 138.529 21.454C138.919 21.862 139.219 22.357 139.429 22.939C139.639 23.521 139.744 24.175 139.744 24.901C139.744 25.627 139.639 26.281 139.429 26.863C139.219 27.445 138.919 27.943 138.529 28.357C138.145 28.765 137.677 29.08 137.125 29.302C136.579 29.524 135.967 29.635 135.289 29.635C134.605 29.635 133.987 29.524 133.435 29.302C132.889 29.08 132.421 28.765 132.031 28.357C131.641 27.943 131.341 27.445 131.131 26.863C130.921 26.281 130.816 25.627 130.816 24.901C130.816 24.175 130.921 23.521 131.131 22.939C131.341 22.357 131.641 21.862 132.031 21.454C132.421 21.046 132.889 20.731 133.435 20.509C133.987 20.287 134.605 20.176 135.289 20.176ZM135.289 28.123C136.117 28.123 136.732 27.847 137.134 27.295C137.542 26.737 137.746 25.942 137.746 24.91C137.746 23.878 137.542 23.083 137.134 22.525C136.732 21.961 136.117 21.679 135.289 21.679C134.449 21.679 133.825 21.961 133.417 22.525C133.009 23.083 132.805 23.878 132.805 24.91C132.805 25.942 133.009 26.737 133.417 27.295C133.825 27.847 134.449 28.123 135.289 28.123ZM143.574 16.18V29.5H141.639V16.18H143.574ZM155.521 27.835C155.995 27.835 156.394 27.781 156.718 27.673C157.048 27.559 157.315 27.406 157.519 27.214C157.729 27.022 157.879 26.797 157.969 26.539C158.065 26.275 158.113 25.993 158.113 25.693C158.113 25.081 157.903 24.601 157.483 24.253C157.069 23.899 156.412 23.722 155.512 23.722H152.911V27.835H155.521ZM152.911 18.187V22.237H155.017C155.917 22.237 156.589 22.063 157.033 21.715C157.477 21.367 157.699 20.866 157.699 20.212C157.699 19.498 157.489 18.982 157.069 18.664C156.655 18.346 156.004 18.187 155.116 18.187H152.911ZM155.116 16.54C155.944 16.54 156.652 16.621 157.24 16.783C157.828 16.939 158.311 17.164 158.689 17.458C159.067 17.752 159.343 18.112 159.517 18.538C159.697 18.958 159.787 19.432 159.787 19.96C159.787 20.266 159.739 20.563 159.643 20.851C159.553 21.133 159.409 21.4 159.211 21.652C159.019 21.898 158.776 22.12 158.482 22.318C158.188 22.516 157.84 22.681 157.438 22.813C159.274 23.203 160.192 24.178 160.192 25.738C160.192 26.29 160.087 26.797 159.877 27.259C159.673 27.715 159.373 28.111 158.977 28.447C158.587 28.777 158.104 29.035 157.528 29.221C156.952 29.407 156.295 29.5 155.557 29.5H150.805V16.54H155.116ZM169.769 20.32V29.5H168.599C168.341 29.5 168.176 29.377 168.104 29.131L167.96 28.276C167.768 28.48 167.564 28.666 167.348 28.834C167.138 29.002 166.913 29.146 166.673 29.266C166.433 29.386 166.175 29.479 165.899 29.545C165.629 29.611 165.338 29.644 165.026 29.644C164.522 29.644 164.078 29.56 163.694 29.392C163.31 29.224 162.986 28.987 162.722 28.681C162.464 28.375 162.269 28.009 162.137 27.583C162.005 27.151 161.939 26.677 161.939 26.161V20.32H163.874V26.161C163.874 26.779 164.015 27.259 164.297 27.601C164.585 27.943 165.02 28.114 165.602 28.114C166.028 28.114 166.424 28.018 166.79 27.826C167.162 27.628 167.51 27.358 167.834 27.016V20.32H169.769ZM174.134 20.32V29.5H172.199V20.32H174.134ZM174.458 17.548C174.458 17.722 174.422 17.887 174.35 18.043C174.284 18.199 174.191 18.337 174.071 18.457C173.951 18.571 173.81 18.664 173.648 18.736C173.492 18.802 173.324 18.835 173.144 18.835C172.97 18.835 172.805 18.802 172.649 18.736C172.499 18.664 172.367 18.571 172.253 18.457C172.139 18.337 172.046 18.199 171.974 18.043C171.908 17.887 171.875 17.722 171.875 17.548C171.875 17.368 171.908 17.2 171.974 17.044C172.046 16.888 172.139 16.753 172.253 16.639C172.367 16.519 172.499 16.426 172.649 16.36C172.805 16.288 172.97 16.252 173.144 16.252C173.324 16.252 173.492 16.288 173.648 16.36C173.81 16.426 173.951 16.519 174.071 16.639C174.191 16.753 174.284 16.888 174.35 17.044C174.422 17.2 174.458 17.368 174.458 17.548ZM178.537 16.18V29.5H176.602V16.18H178.537ZM186.784 22.579C186.514 22.231 186.217 21.988 185.893 21.85C185.569 21.712 185.218 21.643 184.84 21.643C184.084 21.643 183.493 21.922 183.067 22.48C182.641 23.032 182.428 23.851 182.428 24.937C182.428 25.501 182.476 25.984 182.572 26.386C182.668 26.782 182.806 27.106 182.986 27.358C183.166 27.61 183.385 27.793 183.643 27.907C183.901 28.021 184.192 28.078 184.516 28.078C185.008 28.078 185.431 27.973 185.785 27.763C186.145 27.547 186.478 27.244 186.784 26.854V22.579ZM188.719 16.18V29.5H187.549C187.291 29.5 187.126 29.377 187.054 29.131L186.883 28.132C186.499 28.582 186.061 28.945 185.569 29.221C185.083 29.497 184.516 29.635 183.868 29.635C183.352 29.635 182.884 29.533 182.464 29.329C182.044 29.119 181.684 28.816 181.384 28.42C181.084 28.024 180.85 27.535 180.682 26.953C180.52 26.365 180.439 25.693 180.439 24.937C180.439 24.253 180.529 23.62 180.709 23.038C180.895 22.456 181.159 21.952 181.501 21.526C181.843 21.094 182.257 20.758 182.743 20.518C183.235 20.272 183.784 20.149 184.39 20.149C184.93 20.149 185.389 20.236 185.767 20.41C186.145 20.578 186.484 20.815 186.784 21.121V16.18H188.719ZM197.106 23.875C197.106 23.551 197.058 23.251 196.962 22.975C196.872 22.693 196.737 22.45 196.557 22.246C196.377 22.036 196.152 21.874 195.882 21.76C195.618 21.64 195.312 21.58 194.964 21.58C194.262 21.58 193.71 21.781 193.308 22.183C192.906 22.585 192.651 23.149 192.543 23.875H197.106ZM192.489 25.063C192.513 25.585 192.594 26.038 192.732 26.422C192.87 26.8 193.053 27.115 193.281 27.367C193.515 27.619 193.791 27.808 194.109 27.934C194.433 28.054 194.793 28.114 195.189 28.114C195.567 28.114 195.894 28.072 196.17 27.988C196.446 27.898 196.686 27.802 196.89 27.7C197.094 27.592 197.268 27.496 197.412 27.412C197.556 27.322 197.688 27.277 197.808 27.277C197.964 27.277 198.084 27.337 198.168 27.457L198.717 28.168C198.489 28.438 198.231 28.666 197.943 28.852C197.655 29.038 197.349 29.191 197.025 29.311C196.701 29.425 196.368 29.506 196.026 29.554C195.684 29.608 195.351 29.635 195.027 29.635C194.391 29.635 193.8 29.53 193.254 29.32C192.714 29.104 192.243 28.789 191.841 28.375C191.445 27.961 191.133 27.448 190.905 26.836C190.683 26.224 190.572 25.519 190.572 24.721C190.572 24.085 190.671 23.491 190.869 22.939C191.073 22.387 191.361 21.907 191.733 21.499C192.111 21.091 192.567 20.77 193.101 20.536C193.641 20.296 194.25 20.176 194.928 20.176C195.492 20.176 196.014 20.269 196.494 20.455C196.974 20.635 197.388 20.902 197.736 21.256C198.084 21.61 198.354 22.045 198.546 22.561C198.744 23.071 198.843 23.653 198.843 24.307C198.843 24.607 198.81 24.808 198.744 24.91C198.678 25.012 198.558 25.063 198.384 25.063H192.489ZM202.475 22.021C202.763 21.439 203.111 20.983 203.519 20.653C203.927 20.317 204.416 20.149 204.986 20.149C205.184 20.149 205.37 20.173 205.544 20.221C205.718 20.263 205.874 20.329 206.012 20.419L205.877 21.877C205.853 21.979 205.814 22.051 205.76 22.093C205.712 22.129 205.646 22.147 205.562 22.147C205.472 22.147 205.343 22.132 205.175 22.102C205.007 22.066 204.83 22.048 204.644 22.048C204.374 22.048 204.134 22.087 203.924 22.165C203.72 22.243 203.534 22.357 203.366 22.507C203.204 22.657 203.06 22.84 202.934 23.056C202.808 23.272 202.691 23.518 202.583 23.794V29.5H200.648V20.32H201.773C201.977 20.32 202.118 20.359 202.196 20.437C202.274 20.509 202.328 20.638 202.358 20.824L202.475 22.021Z" fill="white"/>
</svg>
