<svg width="20" height="16" viewBox="0 0 20 16" fill="none" xmlns="http://www.w3.org/2000/svg">
<path d="M2.3716 3.26426C2.39648 3.01686 2.30289 2.77226 2.11953 2.60579L0.25207 0.338883V0.000244141H6.05039L10.5322 9.90502L14.4725 0.000244141L20 0.000283482V0.338883L18.4034 1.88148C18.2657 1.98717 18.1974 2.16103 18.226 2.33305V13.6675C18.1974 13.8395 18.2657 14.0133 18.4034 14.119L19.9626 15.6616V16.0002H12.1196V15.6616L13.7348 14.0813C13.8936 13.9215 13.8936 13.8744 13.8936 13.6299V4.46825L9.40246 15.9626H8.79559L3.56672 4.46825V12.1719C3.5232 12.4958 3.62992 12.8219 3.85617 13.0561L5.95711 15.6239V15.9626H0V15.6239L2.10094 13.0561C2.32551 12.8215 2.42598 12.4932 2.3716 12.1719V3.26426Z" fill="white"/>
</svg>
