<svg width="24" height="18" viewBox="0 0 24 18" fill="none" xmlns="http://www.w3.org/2000/svg">
<path d="M23.0625 2.13306C22.2469 2.49399 21.375 2.73774 20.4563 2.85024C21.3938 2.28774 22.1156 1.39712 22.4531 0.337744C21.5766 0.858057 20.6063 1.23774 19.5703 1.43931C18.7406 0.553369 17.5594 0.000244141 16.2563 0.000244141C13.7484 0.000244141 11.7188 2.03462 11.7188 4.54243C11.7188 4.89868 11.7563 5.24556 11.8359 5.57837C8.06251 5.39087 4.71564 3.58149 2.4797 0.829931C2.09064 1.50024 1.86564 2.28306 1.86564 3.11274C1.86564 4.68774 2.6672 6.07993 3.88595 6.89556C3.14064 6.87681 2.43751 6.67056 1.82814 6.32837C1.82814 6.34712 1.82814 6.36587 1.82814 6.38462C1.82814 8.58774 3.39376 10.4206 5.47032 10.8377C5.09064 10.9409 4.68751 10.9971 4.27501 10.9971C3.98439 10.9971 3.69845 10.969 3.42189 10.9127C3.99845 12.7174 5.67657 14.0299 7.66407 14.0674C6.11251 15.2862 4.15314 16.0127 2.02501 16.0127C1.65939 16.0127 1.29845 15.9893 0.9422 15.9471C2.94845 17.2502 5.33439 18.0002 7.89376 18.0002C16.2469 18.0002 20.8125 11.0768 20.8125 5.07212C20.8125 4.87524 20.8078 4.67837 20.7984 4.48618C21.6844 3.84399 22.4531 3.04243 23.0625 2.13306Z" fill="white"/>
</svg>
