<svg width="65" height="39" viewBox="0 0 65 39" fill="none" xmlns="http://www.w3.org/2000/svg">
<g clip-path="url(#clip0_11_1271)">
<circle cx="19.5625" cy="19.5002" r="16" fill="white"/>
<path d="M24.6226 10.3841C25.7252 9.2815 27.5366 9.2815 28.6392 10.3841C29.7418 11.4867 29.7418 13.2981 28.6392 14.4007C27.9894 15.0504 27.1231 15.3261 26.2371 15.2079C26.1977 15.2079 26.1584 15.2079 26.0993 15.2079C25.8433 15.1685 25.5677 15.2079 25.292 15.3261C24.9179 15.5033 24.662 15.7986 24.5242 16.153C24.3863 16.5074 24.406 16.9012 24.5635 17.2556C25.5086 19.3033 25.0755 21.7841 23.4609 23.3789C21.8464 24.9934 19.3853 25.4266 17.3376 24.4815C16.9635 24.3043 16.5698 24.3043 16.2153 24.4421C15.8609 24.5799 15.5656 24.8359 15.4081 25.1903C15.3097 25.4266 15.2506 25.6628 15.2703 25.9188C15.2703 25.9582 15.2703 26.0173 15.2703 26.0566C15.4278 26.9623 15.1128 27.8877 14.4827 28.5375C13.3801 29.64 11.5687 29.64 10.4661 28.5375C9.93452 28.0058 9.63918 27.297 9.63918 26.5292C9.63918 25.781 9.93452 25.0525 10.4661 24.5209C11.1159 23.8711 11.9822 23.5955 12.8682 23.7136C12.8879 23.7136 12.8879 23.7136 12.9076 23.7136C13.006 23.7333 13.1045 23.753 13.2029 23.753C13.4195 23.753 13.6164 23.7136 13.8133 23.6152C14.1874 23.438 14.4433 23.1426 14.5615 22.8079C14.6993 22.4535 14.6993 22.04 14.5221 21.666C13.577 19.5986 14.0102 17.1375 15.6247 15.5426C17.2392 13.9281 19.7003 13.495 21.748 14.44C22.1024 14.6173 22.5159 14.6173 22.8703 14.4794C23.2247 14.3416 23.52 14.0856 23.6972 13.7312C23.835 13.4556 23.8547 13.1406 23.8153 12.8452C23.6775 11.9592 23.9729 11.0338 24.6226 10.3841ZM21.8071 21.725C23.0278 20.5043 23.0278 18.5157 21.8071 17.2753C20.5863 16.0546 18.5977 16.0546 17.3573 17.2753C16.1366 18.496 16.1366 20.4846 17.3573 21.725C18.5977 22.9457 20.5863 22.9457 21.8071 21.725ZM19.5625 0.500153C30.0568 0.500153 38.5625 9.00585 38.5625 19.5002C38.5625 29.9945 30.0568 38.5002 19.5625 38.5002C9.0682 38.5002 0.5625 29.9945 0.5625 19.5002C0.5625 9.00585 9.0682 0.500153 19.5625 0.500153ZM29.6827 15.4639C31.3563 13.7903 31.3563 11.0732 29.6827 9.37994C28.0091 7.70637 25.292 7.70637 23.5988 9.37994C22.9687 10.01 22.5946 10.7779 22.4174 11.5654C19.3656 10.4235 15.8806 11.152 13.5573 13.4753C11.234 15.7986 10.5055 19.3033 11.6672 22.3551C10.8599 22.5126 10.092 22.9064 9.46198 23.5364C7.78841 25.21 7.78841 27.9271 9.46198 29.6204C11.1356 31.2939 13.8527 31.2939 15.5459 29.6204C16.176 28.9903 16.5698 28.2027 16.7273 27.3955C17.6723 27.7499 18.6568 27.9271 19.6413 27.9271C21.8267 27.9271 23.9729 27.0805 25.5677 25.4856C27.891 23.1623 28.6195 19.697 27.4972 16.6649C28.2848 16.468 29.0527 16.0742 29.6827 15.4639Z" fill="#38A2FF"/>
</g>
<g clip-path="url(#clip1_11_1271)">
<circle cx="45.6875" cy="19.5002" r="18" fill="#0033AD" stroke="white" stroke-width="2"/>
<path d="M40.0776 19.3153C40.0236 20.2523 40.7449 21.0544 41.6819 21.1084C41.7156 21.1084 41.7493 21.1084 41.783 21.1084C42.7267 21.1084 43.4884 20.3467 43.4817 19.4029C43.4817 18.4592 42.72 17.6975 41.7763 17.7043C40.873 17.7043 40.1248 18.412 40.0776 19.3153Z" fill="white"/>
<path d="M33.7277 18.8772C33.4244 18.8569 33.1615 19.0929 33.148 19.3962C33.1345 19.6995 33.3637 19.9624 33.6671 19.9759C33.9704 19.9961 34.2266 19.7602 34.2468 19.4569C34.267 19.1535 34.0311 18.8974 33.7277 18.8772Z" fill="white"/>
<path d="M39.9697 9.43328C40.2393 9.29846 40.3472 8.96142 40.2124 8.69179C40.0775 8.42216 39.7405 8.31431 39.4709 8.44912C39.2012 8.58394 39.0934 8.91424 39.2282 9.18387C39.363 9.46024 39.6933 9.57483 39.9697 9.43328C39.963 9.43328 39.9697 9.43328 39.9697 9.43328Z" fill="white"/>
<path d="M41.6953 12.4464C42.1132 12.2375 42.2818 11.7252 42.0728 11.3072C41.8638 10.8893 41.3515 10.7208 40.9336 10.9297C40.5157 11.1387 40.3472 11.651 40.5561 12.0689C40.7651 12.4869 41.2774 12.6554 41.6953 12.4464Z" fill="white"/>
<path d="M35.8848 14.5158C36.2084 14.7247 36.6398 14.6371 36.8555 14.3135C37.0644 13.99 36.9768 13.5586 36.6532 13.3429C36.3297 13.1339 35.8983 13.2215 35.6826 13.5451C35.4669 13.8687 35.5612 14.3068 35.8848 14.5158Z" fill="white"/>
<path d="M36.9161 18.5738C36.4443 18.5468 36.0466 18.9041 36.0196 19.3759C35.9927 19.8478 36.3499 20.2455 36.8218 20.2724C37.2936 20.2994 37.6913 19.9421 37.7183 19.4703C37.7453 19.0052 37.388 18.6007 36.9161 18.5738Z" fill="white"/>
<path d="M35.9792 24.2832C35.6354 24.4585 35.4938 24.8764 35.6691 25.2269C35.8444 25.5707 36.2623 25.7123 36.6128 25.537C36.9566 25.3618 37.0981 24.9438 36.9229 24.5933C36.7476 24.2495 36.3229 24.108 35.9792 24.2832Z" fill="white"/>
<path d="M39.2821 16.8145C39.7473 17.1178 40.3674 16.9897 40.664 16.5246C40.9673 16.0595 40.8393 15.4394 40.3742 15.1428C39.909 14.8394 39.2889 14.9675 38.9923 15.4326C38.689 15.891 38.817 16.5111 39.2821 16.8145Z" fill="white"/>
<path d="M49.7641 12.379C50.155 12.6351 50.6875 12.5273 50.9437 12.1363C51.1998 11.7453 51.092 11.2128 50.701 10.9567C50.3101 10.7005 49.7775 10.8084 49.5214 11.1993C49.2585 11.597 49.3664 12.1228 49.7641 12.379Z" fill="white"/>
<path d="M51.5032 9.37936C51.7593 9.54788 52.0963 9.47373 52.2649 9.21758C52.4334 8.96143 52.3592 8.62439 52.1031 8.45587C51.8469 8.28735 51.5099 8.3615 51.3414 8.61091C51.1796 8.86706 51.2537 9.21084 51.5032 9.37936Z" fill="white"/>
<path d="M49.8921 17.6908C48.9551 17.6368 48.1462 18.3581 48.0991 19.2951C48.0451 20.232 48.7664 21.0409 49.7034 21.0881C49.7371 21.0881 49.7708 21.0881 49.7977 21.0881C50.7347 21.0881 51.4964 20.3264 51.4964 19.3827C51.5032 18.4862 50.7954 17.738 49.8921 17.6908Z" fill="white"/>
<path d="M42.2548 16.6931C42.5447 17.2661 43.1311 17.6301 43.7782 17.6301C44.7152 17.6301 45.4769 16.8684 45.4769 15.9247C45.4769 15.6618 45.4162 15.3989 45.2949 15.1562C44.8702 14.3136 43.8456 13.9766 43.0098 14.4013C42.1672 14.8327 41.8301 15.8573 42.2548 16.6931Z" fill="white"/>
<path d="M55.5948 14.5158C55.9386 14.3406 56.0734 13.9159 55.8981 13.5721C55.7229 13.2283 55.2982 13.0935 54.9544 13.2688C54.6106 13.444 54.4758 13.862 54.6443 14.2057C54.8263 14.5495 55.2443 14.6911 55.5948 14.5158Z" fill="white"/>
<path d="M51.2807 15.055C50.7887 15.3045 50.5864 15.9044 50.8358 16.3965C51.0852 16.8885 51.6852 17.0908 52.1773 16.8414C52.6693 16.5919 52.8716 15.992 52.6221 15.4999C52.3727 15.0079 51.7728 14.8124 51.2807 15.055Z" fill="white"/>
<path d="M45.7196 9.12317C46.1038 9.14339 46.4341 8.8468 46.461 8.46257C46.488 8.07835 46.1847 7.74805 45.8004 7.72109C45.4162 7.70087 45.0859 7.99072 45.059 8.37494C45.0387 8.76591 45.3353 9.09621 45.7196 9.12317Z" fill="white"/>
<path d="M45.7128 13.5249C46.2656 13.5586 46.7374 13.1339 46.7644 12.5812C46.7981 12.0284 46.3734 11.5566 45.8207 11.5296C45.2679 11.4959 44.7961 11.9206 44.7691 12.4733C44.7422 13.0261 45.1601 13.4979 45.7128 13.5249Z" fill="white"/>
<path d="M40.2933 23.744C40.7853 23.4946 40.9876 22.8946 40.7381 22.4026C40.4887 21.9105 39.8888 21.7083 39.3967 21.9577C38.9046 22.2071 38.7024 22.807 38.9518 23.2991C39.2012 23.7912 39.8012 23.9934 40.2933 23.744Z" fill="white"/>
<path d="M46.3599 14.9877C45.8476 15.7763 46.0633 16.8279 46.852 17.3402C47.6407 17.8525 48.6923 17.6368 49.2046 16.8481C49.7169 16.0594 49.5011 15.0079 48.7125 14.4956C48.4361 14.3136 48.1125 14.2192 47.7822 14.2192C47.2093 14.2192 46.6768 14.5091 46.3599 14.9877Z" fill="white"/>
<path d="M49.3191 22.106C48.8945 21.2634 47.8699 20.9264 47.034 21.351C46.1914 21.7757 45.8544 22.8003 46.279 23.6362C46.7037 24.4788 47.7283 24.8158 48.5642 24.3911C49.4 23.9732 49.7438 22.9621 49.3259 22.1195C49.3259 22.1127 49.3259 22.1127 49.3191 22.106Z" fill="white"/>
<path d="M52.2918 21.9846C51.8267 21.6813 51.2066 21.8094 50.91 22.2745C50.6067 22.7396 50.7347 23.3598 51.1998 23.6563C51.665 23.9597 52.2851 23.8316 52.5817 23.3665C52.885 22.9081 52.757 22.288 52.2918 21.9846Z" fill="white"/>
<path d="M55.5544 19.4298C55.5813 18.958 55.2241 18.5603 54.7522 18.5333C54.2803 18.5063 53.8826 18.8636 53.8557 19.3354C53.8287 19.8073 54.186 20.205 54.6578 20.232C55.123 20.2589 55.5274 19.8949 55.5544 19.4298Z" fill="white"/>
<path d="M57.9069 18.8232C57.6036 18.803 57.3407 19.0389 57.3272 19.3422C57.3137 19.6456 57.5429 19.9085 57.8462 19.9219C58.1496 19.9422 58.4057 19.7062 58.4259 19.4029C58.4394 19.0996 58.2102 18.8434 57.9069 18.8232Z" fill="white"/>
<path d="M55.6892 24.2833C55.3656 24.0743 54.9342 24.1619 54.7185 24.4855C54.5095 24.8091 54.5971 25.2405 54.9207 25.4562C55.2443 25.6651 55.6757 25.5775 55.8914 25.2539C56.1071 24.9304 56.0127 24.4922 55.6892 24.2833Z" fill="white"/>
<path d="M40.064 29.4196C39.8079 29.2511 39.4709 29.3253 39.3023 29.5747C39.1338 29.8308 39.208 30.1679 39.4574 30.3364C39.7135 30.5049 40.0506 30.4308 40.2191 30.1814C40.3943 29.9319 40.3202 29.5882 40.064 29.4196Z" fill="white"/>
<path d="M51.6043 29.3658C51.3347 29.5006 51.2268 29.8376 51.3616 30.1073C51.4964 30.3769 51.8335 30.4847 52.1031 30.3499C52.3727 30.2151 52.4806 29.8848 52.3458 29.6152C52.211 29.3388 51.8807 29.2242 51.6043 29.3658C51.611 29.3658 51.6043 29.3658 51.6043 29.3658Z" fill="white"/>
<path d="M45.214 23.8114C45.7263 23.0227 45.5106 21.9711 44.7219 21.4521C43.9332 20.9398 42.8817 21.1555 42.3626 21.9442C41.8436 22.7329 42.066 23.7844 42.8547 24.3035C43.1311 24.4855 43.4546 24.5798 43.7849 24.5798C44.3647 24.5866 44.8972 24.2967 45.214 23.8114Z" fill="white"/>
<path d="M41.8099 26.4201C41.4189 26.1639 40.8864 26.2718 40.6303 26.6627C40.3741 27.0537 40.482 27.5862 40.8729 27.8424C41.2639 28.0985 41.7964 27.9907 42.0526 27.5997C42.3155 27.2087 42.2076 26.6762 41.8099 26.4201Z" fill="white"/>
<path d="M45.7802 29.6758C45.396 29.6556 45.0657 29.9522 45.0387 30.3364C45.0118 30.7206 45.3151 31.0509 45.6993 31.0779C46.0836 31.0981 46.4139 30.8083 46.4408 30.424C46.4611 30.0331 46.1645 29.7028 45.7802 29.6758Z" fill="white"/>
<path d="M45.787 25.2741C45.2342 25.2404 44.7624 25.6651 44.7354 26.2178C44.7017 26.7705 45.1264 27.2424 45.6791 27.2694C46.2318 27.2963 46.7037 26.8784 46.7307 26.3257C46.7644 25.7797 46.3397 25.3011 45.787 25.2741Z" fill="white"/>
<path d="M49.8786 26.3526C49.4607 26.5683 49.2922 27.0806 49.5079 27.4986C49.7236 27.9165 50.2359 28.085 50.6538 27.8693C51.0717 27.6603 51.2402 27.148 51.0313 26.7301C50.8156 26.3122 50.3033 26.1369 49.8786 26.3526Z" fill="white"/>
</g>
<g clip-path="url(#clip2_11_1271)">
<path d="M63.5625 19.5002C63.5625 29.4413 55.5036 37.5002 45.5625 37.5002C35.6214 37.5002 27.5625 29.4413 27.5625 19.5002C27.5625 9.55903 35.6214 1.50015 45.5625 1.50015C55.5036 1.50015 63.5625 9.55903 63.5625 19.5002Z" fill="url(#paint0_linear_11_1271)" stroke="white" stroke-width="2"/>
<path d="M39.1785 9.46815L37.1265 11.5202V19.6522L39.1785 21.7042H47.3105V25.8081H43.2825V23.7562H37.1265V27.8601L39.1785 29.9121H51.4145L53.4665 27.8601V19.6522L51.4145 17.6002H43.2825V13.4962H47.3865V15.5482H53.5425V11.4442L51.4905 9.39215H39.1785V9.46815Z" fill="white"/>
</g>
<defs>
<linearGradient id="paint0_linear_11_1271" x1="34.7097" y1="7.25275" x2="58.3837" y2="33.9668" gradientUnits="userSpaceOnUse">
<stop stop-color="#00ADEF"/>
<stop offset="1" stop-color="#0084FF"/>
</linearGradient>
<clipPath id="clip0_11_1271">
<rect width="38" height="38" fill="white" transform="translate(0.5625 0.500153)"/>
</clipPath>
<clipPath id="clip1_11_1271">
<rect width="38" height="38" fill="white" transform="translate(26.6875 0.500153)"/>
</clipPath>
<clipPath id="clip2_11_1271">
<rect width="38" height="38" fill="white" transform="translate(26.5625 0.500153)"/>
</clipPath>
</defs>
</svg>
