<svg width="65" height="39" viewBox="0 0 65 39" fill="none" xmlns="http://www.w3.org/2000/svg">
<g clip-path="url(#clip0_11_669)">
<path d="M19.3125 38.5C29.8059 38.5 38.3125 29.9934 38.3125 19.5C38.3125 9.00662 29.8059 0.500031 19.3125 0.500031C8.81909 0.500031 0.3125 9.00662 0.3125 19.5C0.3125 29.9934 8.81909 38.5 19.3125 38.5Z" fill="#F3BA2F"/>
<path d="M14.7003 17.6048L19.3125 12.9925L23.9271 17.6072L26.6109 14.9234L19.3125 7.62503L12.0165 14.921L14.7003 17.6048ZM7.4375 19.5L10.1213 16.8163L12.805 19.5L10.1213 22.1838L7.4375 19.5ZM14.7003 21.3953L19.3125 26.0075L23.9271 21.3929L26.6109 24.0755L19.3125 31.375L12.0165 24.079L12.0129 24.0755L14.7003 21.3953ZM25.82 19.5L28.5037 16.8163L31.1875 19.5L28.5037 22.1838L25.82 19.5ZM22.0343 19.4977H22.0366V19.5L19.3125 22.2242L16.5919 19.5048L16.5872 19.5L16.5919 19.4965L17.0681 19.0191L17.2997 18.7875L19.3125 16.7759L22.0354 19.4988L22.0343 19.4977Z" fill="white"/>
</g>
<g clip-path="url(#clip1_11_669)">
<circle cx="45.4375" cy="19.5" r="18" fill="#0033AD" stroke="white" stroke-width="2"/>
<path d="M39.8276 19.3152C39.7736 20.2522 40.4949 21.0543 41.4319 21.1082C41.4656 21.1082 41.4993 21.1082 41.533 21.1082C42.4767 21.1082 43.2384 20.3465 43.2317 19.4028C43.2317 18.4591 42.4699 17.6974 41.5262 17.7042C40.623 17.7042 39.8747 18.4119 39.8276 19.3152Z" fill="white"/>
<path d="M33.4777 18.877C33.1744 18.8568 32.9115 19.0927 32.898 19.3961C32.8846 19.6994 33.1137 19.9623 33.4171 19.9758C33.7204 19.996 33.9766 19.7601 33.9968 19.4567C34.017 19.1534 33.7811 18.8973 33.4777 18.877Z" fill="white"/>
<path d="M39.7197 9.43315C39.9893 9.29834 40.0972 8.9613 39.9624 8.69167C39.8276 8.42204 39.4905 8.31418 39.2209 8.449C38.9513 8.58382 38.8434 8.91411 38.9782 9.18375C39.113 9.46012 39.4433 9.57471 39.7197 9.43315C39.713 9.43315 39.7197 9.43315 39.7197 9.43315Z" fill="white"/>
<path d="M41.4453 12.4463C41.8632 12.2373 42.0317 11.725 41.8228 11.3071C41.6138 10.8892 41.1015 10.7207 40.6836 10.9296C40.2657 11.1386 40.0971 11.6509 40.3061 12.0688C40.5151 12.4868 41.0274 12.6553 41.4453 12.4463Z" fill="white"/>
<path d="M35.6348 14.5157C35.9583 14.7246 36.3898 14.637 36.6055 14.3134C36.8144 13.9899 36.7268 13.5585 36.4032 13.3428C36.0797 13.1338 35.6483 13.2214 35.4326 13.545C35.2169 13.8686 35.3112 14.3067 35.6348 14.5157Z" fill="white"/>
<path d="M36.6661 18.5737C36.1943 18.5467 35.7966 18.9039 35.7696 19.3758C35.7426 19.8477 36.0999 20.2454 36.5718 20.2723C37.0436 20.2993 37.4413 19.942 37.4683 19.4702C37.4952 19.0051 37.138 18.6006 36.6661 18.5737Z" fill="white"/>
<path d="M35.7292 24.2831C35.3854 24.4584 35.2438 24.8763 35.4191 25.2268C35.5943 25.5706 36.0123 25.7122 36.3628 25.5369C36.7066 25.3616 36.8481 24.9437 36.6729 24.5932C36.4976 24.2494 36.0729 24.1079 35.7292 24.2831Z" fill="white"/>
<path d="M39.0321 16.8144C39.4972 17.1177 40.1174 16.9896 40.414 16.5245C40.7173 16.0594 40.5892 15.4392 40.1241 15.1426C39.659 14.8393 39.0389 14.9674 38.7423 15.4325C38.4389 15.8909 38.567 16.511 39.0321 16.8144Z" fill="white"/>
<path d="M49.5141 12.3788C49.905 12.635 50.4375 12.5271 50.6937 12.1362C50.9498 11.7452 50.842 11.2127 50.451 10.9565C50.0601 10.7004 49.5275 10.8082 49.2714 11.1992C49.0085 11.5969 49.1164 12.1227 49.5141 12.3788Z" fill="white"/>
<path d="M51.2532 9.37926C51.5093 9.54778 51.8463 9.47363 52.0149 9.21748C52.1834 8.96133 52.1092 8.62429 51.8531 8.45577C51.5969 8.28725 51.2599 8.3614 51.0914 8.61081C50.9296 8.86696 51.0037 9.21074 51.2532 9.37926Z" fill="white"/>
<path d="M49.6421 17.6907C48.7051 17.6367 47.8962 18.358 47.8491 19.295C47.7951 20.2319 48.5164 21.0408 49.4534 21.088C49.4871 21.088 49.5208 21.088 49.5477 21.088C50.4847 21.088 51.2464 20.3263 51.2464 19.3826C51.2532 18.4861 50.5454 17.7378 49.6421 17.6907Z" fill="white"/>
<path d="M42.0048 16.693C42.2946 17.266 42.8811 17.63 43.5282 17.63C44.4652 17.63 45.2269 16.8683 45.2269 15.9246C45.2269 15.6617 45.1662 15.3988 45.0449 15.1561C44.6202 14.3135 43.5956 13.9765 42.7598 14.4011C41.9172 14.8325 41.5801 15.8571 42.0048 16.693Z" fill="white"/>
<path d="M55.3448 14.5157C55.6886 14.3404 55.8234 13.9158 55.6481 13.572C55.4729 13.2282 55.0482 13.0934 54.7044 13.2686C54.3606 13.4439 54.2258 13.8618 54.3943 14.2056C54.5763 14.5494 54.9943 14.691 55.3448 14.5157Z" fill="white"/>
<path d="M51.0307 15.0549C50.5387 15.3043 50.3364 15.9043 50.5858 16.3963C50.8352 16.8884 51.4352 17.0906 51.9273 16.8412C52.4193 16.5918 52.6216 15.9919 52.3721 15.4998C52.1227 15.0077 51.5228 14.8123 51.0307 15.0549Z" fill="white"/>
<path d="M45.4695 9.12306C45.8538 9.14329 46.1841 8.84669 46.211 8.46247C46.238 8.07824 45.9347 7.74795 45.5504 7.72098C45.1662 7.70076 44.8359 7.99061 44.809 8.37484C44.7887 8.7658 45.0853 9.0961 45.4695 9.12306Z" fill="white"/>
<path d="M45.4628 13.5248C46.0156 13.5585 46.4874 13.1338 46.5144 12.5811C46.5481 12.0283 46.1234 11.5565 45.5707 11.5295C45.0179 11.4958 44.5461 11.9205 44.5191 12.4732C44.4921 13.026 44.9101 13.4978 45.4628 13.5248Z" fill="white"/>
<path d="M40.0433 23.7439C40.5353 23.4944 40.7376 22.8945 40.4881 22.4024C40.2387 21.9104 39.6388 21.7081 39.1467 21.9575C38.6547 22.207 38.4524 22.8069 38.7018 23.299C38.9513 23.791 39.5512 23.9933 40.0433 23.7439Z" fill="white"/>
<path d="M46.1099 14.9875C45.5976 15.7762 45.8133 16.8278 46.602 17.3401C47.3907 17.8524 48.4422 17.6367 48.9545 16.848C49.4668 16.0593 49.2511 15.0078 48.4625 14.4955C48.1861 14.3135 47.8625 14.2191 47.5322 14.2191C46.9593 14.2191 46.4268 14.509 46.1099 14.9875Z" fill="white"/>
<path d="M49.0691 22.1059C48.6445 21.2633 47.6199 20.9262 46.784 21.3509C45.9414 21.7756 45.6044 22.8002 46.029 23.636C46.4537 24.4786 47.4783 24.8157 48.3142 24.391C49.15 23.9731 49.4938 22.9619 49.0759 22.1194C49.0759 22.1126 49.0759 22.1126 49.0691 22.1059Z" fill="white"/>
<path d="M52.0418 21.9845C51.5767 21.6812 50.9566 21.8093 50.66 22.2744C50.3566 22.7395 50.4847 23.3596 50.9498 23.6562C51.4149 23.9596 52.0351 23.8315 52.3317 23.3664C52.635 22.908 52.5069 22.2879 52.0418 21.9845Z" fill="white"/>
<path d="M55.3043 19.4297C55.3313 18.9578 54.974 18.5601 54.5022 18.5332C54.0303 18.5062 53.6326 18.8635 53.6057 19.3353C53.5787 19.8072 53.936 20.2049 54.4078 20.2318C54.8729 20.2588 55.2774 19.8948 55.3043 19.4297Z" fill="white"/>
<path d="M57.6569 18.8231C57.3536 18.8029 57.0907 19.0388 57.0772 19.3421C57.0637 19.6455 57.2929 19.9084 57.5962 19.9218C57.8996 19.9421 58.1557 19.7061 58.1759 19.4028C58.1894 19.0995 57.9602 18.8433 57.6569 18.8231Z" fill="white"/>
<path d="M55.4392 24.2831C55.1156 24.0742 54.6842 24.1618 54.4685 24.4854C54.2595 24.8089 54.3471 25.2403 54.6707 25.456C54.9943 25.665 55.4257 25.5774 55.6414 25.2538C55.8571 24.9303 55.7627 24.4921 55.4392 24.2831Z" fill="white"/>
<path d="M39.814 29.4195C39.5579 29.251 39.2208 29.3252 39.0523 29.5746C38.8838 29.8307 38.958 30.1678 39.2074 30.3363C39.4635 30.5048 39.8006 30.4306 39.9691 30.1812C40.1443 29.9318 40.0702 29.5881 39.814 29.4195Z" fill="white"/>
<path d="M51.3543 29.3657C51.0846 29.5005 50.9768 29.8375 51.1116 30.1071C51.2464 30.3768 51.5835 30.4846 51.8531 30.3498C52.1227 30.215 52.2306 29.8847 52.0958 29.6151C51.961 29.3387 51.6307 29.2241 51.3543 29.3657C51.361 29.3657 51.3543 29.3657 51.3543 29.3657Z" fill="white"/>
<path d="M44.964 23.8113C45.4763 23.0226 45.2606 21.971 44.4719 21.452C43.6832 20.9397 42.6317 21.1554 42.1126 21.9441C41.5936 22.7327 41.816 23.7843 42.6047 24.3033C42.8811 24.4853 43.2046 24.5797 43.5349 24.5797C44.1146 24.5864 44.6472 24.2966 44.964 23.8113Z" fill="white"/>
<path d="M41.5599 26.4199C41.1689 26.1638 40.6364 26.2716 40.3803 26.6626C40.1241 27.0536 40.232 27.5861 40.6229 27.8422C41.0139 28.0984 41.5464 27.9905 41.8026 27.5996C42.0654 27.2086 41.9576 26.6761 41.5599 26.4199Z" fill="white"/>
<path d="M45.5302 29.6757C45.146 29.6555 44.8157 29.9521 44.7887 30.3363C44.7618 30.7205 45.0651 31.0508 45.4493 31.0778C45.8336 31.098 46.1639 30.8081 46.1908 30.4239C46.211 30.033 45.9144 29.7027 45.5302 29.6757Z" fill="white"/>
<path d="M45.537 25.274C44.9842 25.2403 44.5124 25.665 44.4854 26.2177C44.4517 26.7704 44.8764 27.2423 45.4291 27.2693C45.9818 27.2962 46.4537 26.8783 46.4807 26.3256C46.5144 25.7796 46.0897 25.301 45.537 25.274Z" fill="white"/>
<path d="M49.6286 26.3525C49.2107 26.5682 49.0422 27.0805 49.2579 27.4984C49.4736 27.9164 49.9859 28.0849 50.4038 27.8692C50.8217 27.6602 50.9902 27.1479 50.7813 26.73C50.5656 26.3121 50.0533 26.1368 49.6286 26.3525Z" fill="white"/>
</g>
<defs>
<clipPath id="clip0_11_669">
<rect width="38" height="38" fill="white" transform="translate(0.3125 0.500031)"/>
</clipPath>
<clipPath id="clip1_11_669">
<rect width="38" height="38" fill="white" transform="translate(26.4375 0.500031)"/>
</clipPath>
</defs>
</svg>
