<svg width="32" height="32" viewBox="0 0 32 32" fill="none" xmlns="http://www.w3.org/2000/svg">
<path fillRule="evenodd" clipRule="evenodd" d="M16 0C24.8375 0 32 7.1625 32 16C32 24.8375 24.8375 32 16 32C7.1625 32 0 24.8375 0 16C0 7.1625 7.1625 0 16 0Z" fill="#0270FF"/>
<path d="M10.1687 12.3553C13.3874 9.21156 18.6124 9.21156 21.8312 12.3553L22.2187 12.7366C22.3812 12.8928 22.3812 13.1491 22.2187 13.3053L20.8937 14.599C20.8124 14.6803 20.6812 14.6803 20.5999 14.599L20.0687 14.0803C17.8187 11.8866 14.1812 11.8866 11.9312 14.0803L11.3624 14.6365C11.2812 14.7178 11.1499 14.7178 11.0687 14.6365L9.7437 13.3428C9.5812 13.1866 9.5812 12.9303 9.7437 12.7741L10.1687 12.3553ZM24.5749 15.0303L25.7562 16.1803C25.9187 16.3365 25.9187 16.5928 25.7562 16.749L20.4374 21.9428C20.2749 22.099 20.0124 22.099 19.8562 21.9428L16.0812 18.2553C16.0437 18.2178 15.9749 18.2178 15.9374 18.2553L12.1624 21.9428C11.9999 22.099 11.7374 22.099 11.5812 21.9428L6.2437 16.749C6.0812 16.5928 6.0812 16.3365 6.2437 16.1803L7.42495 15.0303C7.58745 14.874 7.84995 14.874 8.0062 15.0303L11.7812 18.7178C11.8187 18.7553 11.8874 18.7553 11.9249 18.7178L15.6999 15.0303C15.8624 14.874 16.1249 14.874 16.2812 15.0303L20.0562 18.7178C20.0937 18.7553 20.1624 18.7553 20.1999 18.7178L23.9749 15.0303C24.1499 14.874 24.4124 14.874 24.5749 15.0303Z" fill="white"/>
</svg>
