<svg width="16" height="16" viewBox="0 0 16 16" fill="none" xmlns="http://www.w3.org/2000/svg">
<path d="M12.9079 0.000244141H3.09214C1.38712 0.000244141 0 1.38707 0 3.09213V6.35829V12.9084C0 14.6134 1.38712 16.0002 3.09214 16.0002H12.9082C14.6132 16.0002 16 14.6134 16 12.9084V6.35797V3.0918C15.9997 1.38675 14.6129 0.000244141 12.9079 0.000244141ZM13.7947 1.84408L14.1485 1.84279V2.1949V4.5548L11.4455 4.56351L11.4362 1.85182L13.7947 1.84408ZM5.71631 6.35797C6.22882 5.6489 7.06019 5.18383 8 5.18383C8.93981 5.18383 9.77118 5.6489 10.283 6.35797C10.6164 6.82078 10.8162 7.38687 10.8162 8.00008C10.8162 9.5528 9.55172 10.816 7.99968 10.816C6.44667 10.816 5.18348 9.5528 5.18348 8.00008C5.1838 7.38687 5.38293 6.82078 5.71631 6.35797ZM14.4409 12.908C14.4409 13.754 13.7531 14.4411 12.9079 14.4411H3.09214C2.24657 14.4411 1.55882 13.754 1.55882 12.908V6.35797H3.94707C3.74084 6.86532 3.62498 7.41947 3.62498 8.00008C3.62498 10.4119 5.58722 12.3755 8 12.3755C10.4125 12.3755 12.3747 10.4119 12.3747 8.00008C12.3747 7.41947 12.2582 6.86532 12.052 6.35797H14.4409V12.908Z" fill="white"/>
</svg>
