<svg width="32" height="32" viewBox="0 0 32 32" fill="none" xmlns="http://www.w3.org/2000/svg">
<circle cx="16" cy="16" r="16" fill="#FAE3CC"/>
<path fillRule="evenodd" clipRule="evenodd" d="M11.8654 23.6809L14.5187 24.3849V23.4643L14.7353 23.2477H16.2515V24.3307V25.0888H14.627L12.6235 24.2224L11.8654 23.6809Z" fill="#CDBDB2"/>
<path fillRule="evenodd" clipRule="evenodd" d="M20.5293 23.6809L17.9301 24.3849V23.4643L17.7135 23.2477H16.1973V24.3307V25.0888H17.8218L19.8253 24.2224L20.5293 23.6809Z" fill="#CDBDB2"/>
<path fillRule="evenodd" clipRule="evenodd" d="M14.7353 21.6769L14.5187 23.4637L14.7894 23.2471H17.6051L17.93 23.4637L17.7134 21.6769L17.2803 21.4061L15.1143 21.4603L14.7353 21.6769Z" fill="#393939"/>
<path fillRule="evenodd" clipRule="evenodd" d="M13.2733 9.60107L14.5729 12.6334L15.1686 21.4599H17.2804L17.9302 12.6334L19.1215 9.60107H13.2733Z" fill="#F89C35"/>
<path fillRule="evenodd" clipRule="evenodd" d="M7.5876 16.2624L6.07141 20.6484L9.86188 20.4318H12.2986V18.5366L12.1903 14.6379L11.6488 15.0711L7.5876 16.2624Z" fill="#F89D35"/>
<path fillRule="evenodd" clipRule="evenodd" d="M10.4574 16.7488L14.8977 16.8571L14.4104 19.1314L12.2985 18.5899L10.4574 16.7488Z" fill="#D87C30"/>
<path fillRule="evenodd" clipRule="evenodd" d="M10.4574 16.803L12.2985 18.5358V20.2686L10.4574 16.803Z" fill="#EA8D3A"/>
<path fillRule="evenodd" clipRule="evenodd" d="M12.2986 18.5903L14.4646 19.1318L15.1686 21.4603L14.6812 21.731L12.2986 20.3231V18.5903Z" fill="#F89D35"/>
<path fillRule="evenodd" clipRule="evenodd" d="M12.2986 20.3234L11.8654 23.6807L14.7353 21.6772L12.2986 20.3234Z" fill="#EB8F35"/>
<path fillRule="evenodd" clipRule="evenodd" d="M14.8977 16.8572L15.1685 21.46L14.3562 19.1045L14.8977 16.8572Z" fill="#EA8E3A"/>
<path fillRule="evenodd" clipRule="evenodd" d="M9.80762 20.3776L12.2985 20.3234L11.8653 23.6807L9.80762 20.3776Z" fill="#D87C30"/>
<path fillRule="evenodd" clipRule="evenodd" d="M7.2627 25.1429L11.8654 23.6808L9.80768 20.3777L6.07141 20.6484L7.2627 25.1429Z" fill="#EB8F35"/>
<path fillRule="evenodd" clipRule="evenodd" d="M14.5728 12.6337L12.2444 14.5831L10.4574 16.749L14.8977 16.9115L14.5728 12.6337Z" fill="#E8821E"/>
<path fillRule="evenodd" clipRule="evenodd" d="M11.8654 23.6805L14.7353 21.6771L14.5187 23.4098V24.3845L12.5693 24.0054L11.8654 23.6805Z" fill="#DFCEC3"/>
<path fillRule="evenodd" clipRule="evenodd" d="M20.5293 23.6805L17.7135 21.6771L17.9301 23.4098V24.3845L19.8795 24.0054L20.5293 23.6805Z" fill="#DFCEC3"/>
<path fillRule="evenodd" clipRule="evenodd" d="M13.7064 17.8314L14.3021 19.0769L12.1902 18.5354L13.7064 17.8314Z" fill="#393939"/>
<path fillRule="evenodd" clipRule="evenodd" d="M7.2085 7.05646L14.5728 12.6338L13.3274 9.60144L7.2085 7.05646Z" fill="#E88F35"/>
<path fillRule="evenodd" clipRule="evenodd" d="M7.20846 7.05646L6.23376 10.0347L6.77526 13.2837L6.39621 13.5003L6.93771 13.9876L6.50451 14.3666L7.10016 14.9081L6.72111 15.233L7.5875 16.316L11.6487 15.0706C13.6342 13.4822 14.6089 12.67 14.5728 12.6339C14.5367 12.5978 12.0819 10.7386 7.20846 7.05646Z" fill="#8E5A30"/>
<path fillRule="evenodd" clipRule="evenodd" d="M24.8071 16.2623L26.3232 20.6484L22.5328 20.4318H20.0961V18.5366L20.2044 14.6378L20.7459 15.071L24.8071 16.2623Z" fill="#F89D35"/>
<path fillRule="evenodd" clipRule="evenodd" d="M21.9373 16.7488L17.497 16.8571L17.9843 19.1314L20.0962 18.5899L21.9373 16.7488Z" fill="#D87C30"/>
<path fillRule="evenodd" clipRule="evenodd" d="M21.9373 16.803L20.0962 18.5358V20.2686L21.9373 16.803Z" fill="#EA8D3A"/>
<path fillRule="evenodd" clipRule="evenodd" d="M20.0961 18.5903L17.9301 19.1318L17.2261 21.4603L17.7135 21.731L20.0961 20.3231V18.5903Z" fill="#F89D35"/>
<path fillRule="evenodd" clipRule="evenodd" d="M20.0961 20.3234L20.5293 23.6807L17.7135 21.7313L20.0961 20.3234Z" fill="#EB8F35"/>
<path fillRule="evenodd" clipRule="evenodd" d="M17.497 16.8572L17.2262 21.4599L18.0385 19.1044L17.497 16.8572Z" fill="#EA8E3A"/>
<path fillRule="evenodd" clipRule="evenodd" d="M22.587 20.3776L20.0962 20.3234L20.5294 23.6807L22.587 20.3776Z" fill="#D87C30"/>
<path fillRule="evenodd" clipRule="evenodd" d="M25.132 25.1428L20.5293 23.6808L22.587 20.3777L26.3232 20.6484L25.132 25.1428Z" fill="#EB8F35"/>
<path fillRule="evenodd" clipRule="evenodd" d="M17.8219 12.6336L20.1503 14.583L21.9373 16.749L17.497 16.9115L17.8219 12.6336Z" fill="#E8821E"/>
<path fillRule="evenodd" clipRule="evenodd" d="M18.6882 17.8314L18.0925 19.0768L20.2044 18.5353L18.6882 17.8314Z" fill="#393939"/>
<path fillRule="evenodd" clipRule="evenodd" d="M25.1862 7.0564L17.8218 12.6337L19.0672 9.60137L25.1862 7.0564Z" fill="#E88F35"/>
<path fillRule="evenodd" clipRule="evenodd" d="M25.1862 7.0564L26.1609 10.0346L25.6194 13.2836L25.9984 13.5002L25.4569 13.9875L25.8901 14.3666L25.2945 14.9081L25.6735 15.233L24.8072 16.316L20.7459 15.0705C18.7605 13.4821 17.7858 12.6699 17.8219 12.6338C17.858 12.5977 20.3127 10.7386 25.1862 7.0564Z" fill="#8E5A30"/>
</svg>
