<svg width="214" height="39" viewBox="0 0 214 39" fill="none" xmlns="http://www.w3.org/2000/svg">
<path d="M16.4992 2H37.5808L22.0816 24.9729H1L16.4992 2Z" fill="#D7B589"/>
<path d="M17.4224 27.102L11.4192 36H33.5008L49 13.0271H32.7024L23.2064 27.102H17.4224Z" fill="#D29F5C"/>
<path d="M66.094 10.792C66.3873 10.792 66.7467 10.8067 67.172 10.836C67.612 10.8653 68.0593 10.9093 68.514 10.968C68.9833 11.012 69.3867 11.0633 69.724 11.122C70.076 11.166 70.318 11.2173 70.45 11.276L70.186 14.246H69.966C69.966 13.4833 69.68 12.8747 69.108 12.42C68.5507 11.9507 67.8027 11.716 66.864 11.716C66.0133 11.716 65.324 11.9213 64.796 12.332C64.2827 12.7427 64.0113 13.2413 63.982 13.828C63.9673 14.268 64.1067 14.6493 64.4 14.972C64.6933 15.2947 65.0673 15.5953 65.522 15.874L69.724 18.602C70.3987 18.9833 70.9047 19.482 71.242 20.098C71.594 20.714 71.748 21.4327 71.704 22.254C71.6307 23.6913 71.0807 24.8133 70.054 25.62C69.0273 26.412 67.634 26.808 65.874 26.808C65.2287 26.808 64.598 26.7493 63.982 26.632C63.3807 26.5293 62.8453 26.3827 62.376 26.192C61.9067 25.9867 61.5327 25.7447 61.254 25.466C61.1367 25.1433 61.0853 24.7547 61.1 24.3C61.1147 23.8453 61.1807 23.3833 61.298 22.914C61.43 22.4447 61.5913 22.056 61.782 21.748H61.98C61.9213 22.496 62.0533 23.1927 62.376 23.838C62.7133 24.4687 63.1973 24.9747 63.828 25.356C64.4733 25.7227 65.236 25.8987 66.116 25.884C67.084 25.8693 67.832 25.6273 68.36 25.158C68.888 24.674 69.152 24.0947 69.152 23.42C69.152 22.9653 69.0127 22.5547 68.734 22.188C68.47 21.8213 68.03 21.4693 67.414 21.132L63.564 18.58C62.7867 18.14 62.222 17.5753 61.87 16.886C61.518 16.1967 61.3787 15.4487 61.452 14.642C61.5253 13.8793 61.7527 13.212 62.134 12.64C62.5153 12.0533 63.036 11.5987 63.696 11.276C64.3707 10.9533 65.17 10.792 66.094 10.792ZM70.472 11.012L70.428 11.474H67.832V11.012H70.472ZM80.9028 13.366V26.5H77.7128V13.366H80.9028ZM85.6988 13.278V14.158H72.9388V13.278H85.6988ZM85.6988 14.092V16.424H85.4568V16.226C85.4714 15.5953 85.2954 15.0967 84.9288 14.73C84.5768 14.3633 84.0854 14.1727 83.4548 14.158V14.092H85.6988ZM85.6988 12.948V13.498L83.3668 13.278C83.6454 13.278 83.9461 13.2633 84.2688 13.234C84.5914 13.19 84.8848 13.146 85.1487 13.102C85.4128 13.0433 85.5961 12.992 85.6988 12.948ZM77.7568 25.114V26.5H76.2828V26.28C76.2828 26.28 76.3194 26.28 76.3928 26.28C76.4808 26.28 76.5248 26.28 76.5248 26.28C76.8474 26.28 77.1188 26.17 77.3388 25.95C77.5734 25.7153 77.6981 25.4367 77.7128 25.114H77.7568ZM80.8368 25.114H80.9028C80.9028 25.4367 81.0201 25.7153 81.2548 25.95C81.4894 26.17 81.7754 26.28 82.1128 26.28C82.1128 26.28 82.1494 26.28 82.2228 26.28C82.3108 26.28 82.3548 26.28 82.3548 26.28V26.5H80.8368V25.114ZM75.1828 14.092V14.158C74.5374 14.1727 74.0388 14.3633 73.6868 14.73C73.3494 15.0967 73.1808 15.5953 73.1808 16.226V16.424H72.9388V14.092H75.1828ZM72.9388 12.948C73.0708 12.9773 73.2614 13.0213 73.5108 13.08C73.7748 13.1387 74.0608 13.19 74.3688 13.234C74.6914 13.2633 74.9848 13.278 75.2488 13.278L72.9388 13.498V12.948ZM91.5532 12.706L98.0652 26.39H94.3472L90.2552 16.732L91.5532 12.706ZM87.4172 25.048C87.2558 25.444 87.2778 25.752 87.4832 25.972C87.6885 26.1773 87.9158 26.28 88.1652 26.28H88.3412V26.5H83.9412V26.28C83.9412 26.28 83.9705 26.28 84.0292 26.28C84.0878 26.28 84.1172 26.28 84.1172 26.28C84.4105 26.28 84.7185 26.192 85.0412 26.016C85.3638 25.8253 85.6278 25.5027 85.8332 25.048H87.4172ZM91.5532 12.706L91.5972 15.346L86.8232 26.434H85.1952L90.3432 15.368C90.3725 15.28 90.4385 15.126 90.5412 14.906C90.6438 14.6713 90.7538 14.4147 90.8712 14.136C90.9885 13.8427 91.0985 13.5713 91.2012 13.322C91.3038 13.058 91.3625 12.8527 91.3772 12.706H91.5532ZM93.4672 22.188V23.046H87.8572V22.188H93.4672ZM93.7972 25.048H97.4272C97.6472 25.5027 97.9185 25.8253 98.2412 26.016C98.5638 26.192 98.8718 26.28 99.1652 26.28C99.1652 26.28 99.1945 26.28 99.2532 26.28C99.3118 26.28 99.3412 26.28 99.3412 26.28V26.5H92.8732V26.28H93.0492C93.2985 26.28 93.5258 26.1773 93.7312 25.972C93.9365 25.752 93.9585 25.444 93.7972 25.048ZM107.097 18.184L112.025 25.026C112.304 25.4367 112.597 25.752 112.905 25.972C113.213 26.1773 113.573 26.2873 113.983 26.302V26.5H112.289C112.143 26.5 111.901 26.4927 111.563 26.478C111.226 26.4633 110.837 26.412 110.397 26.324C109.972 26.2213 109.539 26.0527 109.099 25.818C108.659 25.5833 108.271 25.246 107.933 24.806C107.86 24.7033 107.735 24.5273 107.559 24.278C107.383 24.0287 107.171 23.7353 106.921 23.398C106.687 23.0607 106.437 22.716 106.173 22.364C105.924 22.012 105.689 21.682 105.469 21.374C105.249 21.066 105.073 20.8167 104.941 20.626C104.809 20.4353 104.743 20.34 104.743 20.34L107.097 18.184ZM111.761 13.432L106.019 20.208L104.743 20.34L109.957 13.432H111.761ZM113.125 13.278V13.498H113.037C112.612 13.498 112.216 13.5787 111.849 13.74C111.483 13.9013 111.182 14.1213 110.947 14.4L109.253 14.356C109.415 14.1507 109.444 13.96 109.341 13.784C109.239 13.5933 109.063 13.498 108.813 13.498H108.637V13.278H113.037H113.125ZM104.105 13.278V26.5H100.937V13.278H104.105ZM100.981 25.114V26.5H99.4854V26.28C99.4854 26.28 99.5147 26.28 99.5734 26.28C99.6467 26.28 99.6907 26.28 99.7054 26.28C100.043 26.28 100.329 26.17 100.563 25.95C100.798 25.7153 100.923 25.4367 100.937 25.114H100.981ZM104.039 25.114H104.105C104.105 25.4367 104.223 25.7153 104.457 25.95C104.692 26.17 104.978 26.28 105.315 26.28C105.33 26.28 105.374 26.28 105.447 26.28C105.521 26.28 105.557 26.28 105.557 26.28V26.5H104.039V25.114ZM104.039 14.686V13.278H105.557V13.498C105.543 13.498 105.499 13.498 105.425 13.498C105.367 13.498 105.33 13.498 105.315 13.498C104.978 13.498 104.692 13.6153 104.457 13.85C104.223 14.07 104.105 14.3487 104.105 14.686H104.039ZM100.981 14.686H100.937C100.923 14.3487 100.798 14.07 100.563 13.85C100.329 13.6153 100.043 13.498 99.7054 13.498C99.7054 13.498 99.6687 13.498 99.5954 13.498C99.522 13.498 99.478 13.498 99.4634 13.498V13.278H100.981V14.686ZM118.952 13.3V26.5H115.784V13.3H118.952ZM115.85 25.114V26.5H114.244V26.28C114.244 26.28 114.288 26.28 114.376 26.28C114.464 26.28 114.515 26.28 114.53 26.28C114.867 26.28 115.161 26.17 115.41 25.95C115.659 25.7153 115.784 25.4367 115.784 25.114H115.85ZM118.908 25.114H118.952C118.967 25.4367 119.091 25.7153 119.326 25.95C119.575 26.17 119.876 26.28 120.228 26.28C120.228 26.28 120.265 26.28 120.338 26.28C120.426 26.28 120.477 26.28 120.492 26.28V26.5H118.908V25.114ZM118.908 14.686V13.3H120.492L120.47 13.52C120.47 13.52 120.433 13.52 120.36 13.52C120.287 13.52 120.243 13.52 120.228 13.52C119.876 13.52 119.575 13.63 119.326 13.85C119.091 14.07 118.967 14.3487 118.952 14.686H118.908ZM115.85 14.686H115.784C115.784 14.3487 115.659 14.07 115.41 13.85C115.161 13.63 114.86 13.52 114.508 13.52C114.508 13.52 114.464 13.52 114.376 13.52C114.288 13.52 114.244 13.52 114.244 13.52V13.3H115.85V14.686ZM123.232 12.992L136.146 24.344L136.366 26.786L123.474 15.434L123.232 12.992ZM123.32 25.158V26.5H121.692V26.28C121.692 26.28 121.751 26.28 121.868 26.28C121.986 26.28 122.044 26.28 122.044 26.28C122.382 26.28 122.668 26.1773 122.902 25.972C123.137 25.752 123.254 25.4807 123.254 25.158H123.32ZM126.268 25.158C126.283 25.4807 126.408 25.752 126.642 25.972C126.877 26.1773 127.156 26.28 127.478 26.28C127.478 26.28 127.537 26.28 127.654 26.28C127.786 26.28 127.852 26.28 127.852 26.28V26.5H126.224V25.158H126.268ZM123.232 12.992L126.268 16.292V26.5H123.254V15.5C123.254 14.752 123.218 14.1507 123.144 13.696C123.071 13.2267 123.034 12.992 123.034 12.992H123.232ZM136.344 13.3V24.212C136.344 24.7253 136.359 25.18 136.388 25.576C136.432 25.9573 136.469 26.258 136.498 26.478C136.542 26.6833 136.564 26.786 136.564 26.786H136.366L133.33 23.288V13.3H136.344ZM136.278 14.642V13.3H137.928V13.52C137.928 13.52 137.862 13.52 137.73 13.52C137.613 13.52 137.554 13.52 137.554 13.52C137.232 13.52 136.946 13.63 136.696 13.85C136.462 14.0553 136.344 14.3193 136.344 14.642H136.278ZM133.33 14.642C133.316 14.3193 133.191 14.0553 132.956 13.85C132.736 13.63 132.458 13.52 132.12 13.52C132.12 13.52 132.054 13.52 131.922 13.52C131.805 13.52 131.746 13.52 131.746 13.52V13.3H133.374V14.642H133.33ZM146.343 13.014C147.018 13.014 147.692 13.058 148.367 13.146C149.056 13.2193 149.694 13.3367 150.281 13.498C150.882 13.6447 151.388 13.8207 151.799 14.026V17.524H151.623C151.388 16.5853 151.036 15.852 150.567 15.324C150.112 14.796 149.584 14.422 148.983 14.202C148.382 13.982 147.729 13.872 147.025 13.872C145.998 13.872 145.133 14.114 144.429 14.598C143.725 15.082 143.19 15.786 142.823 16.71C142.471 17.6193 142.295 18.7193 142.295 20.01C142.295 21.2273 142.456 22.276 142.779 23.156C143.102 24.036 143.578 24.718 144.209 25.202C144.84 25.686 145.602 25.928 146.497 25.928C146.966 25.928 147.414 25.8547 147.839 25.708C148.264 25.5467 148.638 25.3193 148.961 25.026C149.284 24.718 149.511 24.344 149.643 23.904L149.665 21.264C149.665 20.9707 149.577 20.7507 149.401 20.604C149.24 20.4573 149.005 20.384 148.697 20.384H148.389V20.186H154.043V20.384H153.757C153.112 20.384 152.796 20.6773 152.811 21.264V24.19C152.503 24.6007 152.026 25.004 151.381 25.4C150.736 25.796 149.973 26.126 149.093 26.39C148.213 26.654 147.252 26.786 146.211 26.786C144.744 26.7713 143.468 26.4927 142.383 25.95C141.298 25.3927 140.454 24.6007 139.853 23.574C139.252 22.5473 138.951 21.3153 138.951 19.878C138.951 18.4407 139.252 17.216 139.853 16.204C140.454 15.1773 141.305 14.3927 142.405 13.85C143.505 13.2927 144.818 13.014 146.343 13.014ZM162.883 11.1C164.613 11.1 166.109 11.4153 167.371 12.046C168.632 12.662 169.6 13.5493 170.275 14.708C170.964 15.852 171.309 17.216 171.309 18.8C171.309 20.384 170.964 21.7553 170.275 22.914C169.6 24.058 168.632 24.9453 167.371 25.576C166.109 26.192 164.613 26.5 162.883 26.5H157.647L157.625 25.576C158.05 25.576 158.49 25.576 158.945 25.576C159.414 25.576 159.869 25.576 160.309 25.576C160.749 25.576 161.137 25.576 161.475 25.576C161.827 25.576 162.105 25.576 162.311 25.576C162.516 25.576 162.619 25.576 162.619 25.576C163.675 25.576 164.584 25.3047 165.347 24.762C166.109 24.2047 166.696 23.42 167.107 22.408C167.517 21.396 167.723 20.1933 167.723 18.8C167.723 17.4067 167.517 16.204 167.107 15.192C166.696 14.18 166.109 13.4027 165.347 12.86C164.584 12.3027 163.675 12.024 162.619 12.024C162.619 12.024 162.509 12.024 162.289 12.024C162.083 12.024 161.797 12.024 161.431 12.024C161.064 12.024 160.653 12.024 160.199 12.024C159.744 12.024 159.275 12.024 158.791 12.024C158.307 12.024 157.845 12.024 157.405 12.024V11.1H162.883ZM159.891 11.1V26.5H156.591V11.1H159.891ZM156.657 24.894V26.5H154.897V26.28C154.897 26.28 154.941 26.28 155.029 26.28C155.131 26.28 155.183 26.28 155.183 26.28C155.564 26.28 155.887 26.148 156.151 25.884C156.429 25.6053 156.576 25.2753 156.591 24.894H156.657ZM156.657 12.706H156.591C156.591 12.3247 156.451 12.002 156.173 11.738C155.894 11.4593 155.564 11.32 155.183 11.32C155.183 11.32 155.139 11.32 155.051 11.32C154.963 11.32 154.919 11.32 154.919 11.32L154.897 11.1H156.657V12.706ZM179.27 10.66L186.464 26.368H182.504L177.928 14.906L179.27 10.66ZM174.54 24.894C174.423 25.1873 174.401 25.4367 174.474 25.642C174.548 25.8473 174.672 26.0087 174.848 26.126C175.024 26.2287 175.2 26.28 175.376 26.28H175.574V26.5H170.866V26.28C170.866 26.28 170.903 26.28 170.976 26.28C171.035 26.28 171.064 26.28 171.064 26.28C171.402 26.28 171.746 26.1773 172.098 25.972C172.465 25.752 172.766 25.3927 173 24.894H174.54ZM179.27 10.66L179.358 13.344L173.902 26.434H172.296L177.994 13.542C178.038 13.454 178.112 13.2927 178.214 13.058C178.332 12.8087 178.449 12.53 178.566 12.222C178.698 11.914 178.816 11.6207 178.918 11.342C179.021 11.0487 179.072 10.8213 179.072 10.66H179.27ZM181.58 21.264V22.188H175.112V21.264H181.58ZM181.91 24.894H185.76C186.01 25.3927 186.31 25.752 186.662 25.972C187.014 26.1773 187.359 26.28 187.696 26.28C187.696 26.28 187.726 26.28 187.784 26.28C187.843 26.28 187.872 26.28 187.872 26.28V26.5H180.876V26.28H181.074C181.368 26.28 181.624 26.1627 181.844 25.928C182.064 25.6787 182.086 25.334 181.91 24.894ZM192.4 13.3H194.512C195.7 13.3 196.661 13.4613 197.394 13.784C198.127 14.1067 198.677 14.5467 199.044 15.104C199.411 15.6467 199.609 16.2627 199.638 16.952C199.667 17.8173 199.491 18.5727 199.11 19.218C198.743 19.8633 198.245 20.3547 197.614 20.692C196.983 21.0293 196.294 21.1833 195.546 21.154C194.798 21.11 194.057 20.846 193.324 20.362V20.164C193.324 20.164 193.397 20.164 193.544 20.164C193.705 20.164 193.903 20.142 194.138 20.098C194.373 20.0393 194.615 19.9367 194.864 19.79C195.128 19.6433 195.377 19.4233 195.612 19.13C195.847 18.8367 196.03 18.4407 196.162 17.942C196.206 17.766 196.235 17.5753 196.25 17.37C196.279 17.15 196.287 16.9593 196.272 16.798C196.257 15.9913 196.015 15.3533 195.546 14.884C195.091 14.4 194.453 14.158 193.632 14.158H192.598C192.598 14.158 192.583 14.092 192.554 13.96C192.525 13.8133 192.488 13.6667 192.444 13.52C192.415 13.3733 192.4 13.3 192.4 13.3ZM192.642 13.3V26.5H189.474V13.3H192.642ZM189.518 25.114L189.606 26.5H188.022V26.28C188.037 26.28 188.081 26.28 188.154 26.28C188.227 26.28 188.271 26.28 188.286 26.28C188.609 26.28 188.88 26.17 189.1 25.95C189.335 25.7153 189.459 25.4367 189.474 25.114H189.518ZM189.518 14.664H189.474C189.459 14.3267 189.335 14.0553 189.1 13.85C188.88 13.63 188.609 13.52 188.286 13.52C188.257 13.52 188.205 13.52 188.132 13.52C188.073 13.52 188.029 13.52 188 13.52V13.3H189.606L189.518 14.664ZM192.598 25.114H192.642C192.657 25.4367 192.774 25.7153 192.994 25.95C193.214 26.17 193.493 26.28 193.83 26.28C193.859 26.28 193.903 26.28 193.962 26.28C194.035 26.28 194.079 26.28 194.094 26.28V26.5H192.488L192.598 25.114ZM205.291 13.3H207.403C208.591 13.3 209.551 13.4613 210.285 13.784C211.018 14.1067 211.568 14.5467 211.935 15.104C212.301 15.6467 212.499 16.2627 212.529 16.952C212.558 17.8173 212.382 18.5727 212.001 19.218C211.634 19.8633 211.135 20.3547 210.505 20.692C209.874 21.0293 209.185 21.1833 208.437 21.154C207.689 21.11 206.948 20.846 206.215 20.362V20.164C206.215 20.164 206.288 20.164 206.435 20.164C206.596 20.164 206.794 20.142 207.029 20.098C207.263 20.0393 207.505 19.9367 207.755 19.79C208.019 19.6433 208.268 19.4233 208.503 19.13C208.737 18.8367 208.921 18.4407 209.053 17.942C209.097 17.766 209.126 17.5753 209.141 17.37C209.17 17.15 209.177 16.9593 209.163 16.798C209.148 15.9913 208.906 15.3533 208.437 14.884C207.982 14.4 207.344 14.158 206.523 14.158H205.489C205.489 14.158 205.474 14.092 205.445 13.96C205.415 13.8133 205.379 13.6667 205.335 13.52C205.305 13.3733 205.291 13.3 205.291 13.3ZM205.533 13.3V26.5H202.365V13.3H205.533ZM202.409 25.114L202.497 26.5H200.913V26.28C200.927 26.28 200.971 26.28 201.045 26.28C201.118 26.28 201.162 26.28 201.177 26.28C201.499 26.28 201.771 26.17 201.991 25.95C202.225 25.7153 202.35 25.4367 202.365 25.114H202.409ZM202.409 14.664H202.365C202.35 14.3267 202.225 14.0553 201.991 13.85C201.771 13.63 201.499 13.52 201.177 13.52C201.147 13.52 201.096 13.52 201.023 13.52C200.964 13.52 200.92 13.52 200.891 13.52V13.3H202.497L202.409 14.664ZM205.489 25.114H205.533C205.547 25.4367 205.665 25.7153 205.885 25.95C206.105 26.17 206.383 26.28 206.721 26.28C206.75 26.28 206.794 26.28 206.853 26.28C206.926 26.28 206.97 26.28 206.985 26.28V26.5H205.379L205.489 25.114Z" fill="#D29F5C"/>
</svg>
