<svg width="35" height="35" viewBox="0 0 35 35" fill="none" xmlns="http://www.w3.org/2000/svg">
<path fillRule="evenodd" clipRule="evenodd" d="M35 17.5C35 27.165 27.165 35 17.5 35C7.83502 35 0 27.165 0 17.5C0 7.83502 7.83502 0 17.5 0C27.165 0 35 7.83502 35 17.5ZM20.4873 9.54297C23.1807 9.74805 25.457 11.5322 25.457 11.5322C25.457 11.5322 28 15.2236 28.4512 22.4697C25.8877 25.4297 21.9912 25.4502 21.9912 25.4502L21.1777 24.3633C22.5586 23.8848 24.124 23.0234 25.4707 21.4717C23.8574 22.6953 21.4307 23.96 17.5137 23.96C13.5967 23.96 11.1631 22.6885 9.55664 21.4717C10.9033 23.0234 12.4688 23.8848 13.8496 24.3633L13.0361 25.4502C13.0361 25.4502 9.13965 25.4297 6.57617 22.4697C7.01367 15.2236 9.55664 11.5322 9.55664 11.5322C9.55664 11.5322 11.7031 9.80957 14.5264 9.54297L14.7656 10.0283C12.5439 10.5273 11.2178 11.4775 10.0488 12.5234C12.0586 11.498 14.0479 10.5342 17.5068 10.5342C20.9658 10.5342 22.9551 11.498 24.9648 12.5234C23.7959 11.4775 22.6816 10.623 20.248 10.0283L20.4873 9.54297ZM12.5234 18.4912C12.5234 19.5918 13.3027 20.4805 14.2666 20.4805C15.2305 20.4805 16.0098 19.5918 16.0098 18.4912C16.0098 17.3906 15.2305 16.502 14.2666 16.502C13.3027 16.502 12.5234 17.3906 12.5234 18.4912ZM18.9902 18.4912C18.9902 19.5918 19.7695 20.4805 20.7334 20.4805C21.6904 20.4805 22.4766 19.5918 22.4766 18.4912C22.4766 17.3906 21.6973 16.502 20.7334 16.502C19.7695 16.502 18.9902 17.3906 18.9902 18.4912Z" fill="black"/>
</svg>
