<svg width="35" height="35" viewBox="0 0 35 35" fill="none" xmlns="http://www.w3.org/2000/svg">
<path d="M21.5166 10.0847H13.4834C13.0371 10.0847 12.5951 10.1726 12.1828 10.3434C11.7704 10.5142 11.3958 10.7646 11.0802 11.0802C10.7646 11.3958 10.5142 11.7704 10.3434 12.1828C10.1726 12.5951 10.0847 13.0371 10.0847 13.4834V21.5166C10.0847 22.418 10.4428 23.2825 11.0802 23.9198C11.3958 24.2354 11.7704 24.4858 12.1828 24.6566C12.5951 24.8274 13.0371 24.9153 13.4834 24.9153H21.5166C22.418 24.9153 23.2824 24.5572 23.9198 23.9198C24.5571 23.2824 24.9152 22.418 24.9152 21.5166V13.4834C24.9152 13.0371 24.8273 12.5951 24.6565 12.1828C24.4857 11.7704 24.2354 11.3958 23.9198 11.0802C23.6042 10.7646 23.2295 10.5142 22.8172 10.3434C22.4049 10.1726 21.9629 10.0847 21.5166 10.0847ZM17.5 22.1752C16.5753 22.1752 15.6714 21.901 14.9026 21.3873C14.1338 20.8735 13.5346 20.1434 13.1807 19.2891C12.8269 18.4348 12.7343 17.4948 12.9147 16.5879C13.0951 15.681 13.5403 14.848 14.1942 14.1942C14.848 13.5403 15.681 13.0951 16.5879 12.9147C17.4948 12.7343 18.4348 12.8269 19.2891 13.1807C20.1434 13.5346 20.8735 14.1338 21.3873 14.9026C21.901 15.6714 22.1752 16.5753 22.1752 17.5C22.1752 18.114 22.0542 18.7219 21.8193 19.2891C21.5843 19.8563 21.24 20.3717 20.8058 20.8058C20.3717 21.24 19.8563 21.5843 19.2891 21.8193C18.7219 22.0542 18.114 22.1752 17.5 22.1752V22.1752ZM22.3701 13.7799C22.1501 13.7799 21.935 13.7147 21.7521 13.5925C21.5692 13.4703 21.4266 13.2965 21.3424 13.0933C21.2582 12.8901 21.2362 12.6664 21.2791 12.4507C21.322 12.2349 21.4279 12.0367 21.5835 11.8811C21.739 11.7256 21.9372 11.6196 22.153 11.5767C22.3687 11.5338 22.5924 11.5558 22.7956 11.64C22.9989 11.7242 23.1726 11.8667 23.2948 12.0497C23.417 12.2326 23.4823 12.4476 23.4823 12.6676C23.4823 12.9626 23.3651 13.2455 23.1565 13.4541C22.9479 13.6627 22.665 13.7799 22.3701 13.7799V13.7799Z" fill="black"/>
<path d="M17.5 14.4611C16.899 14.4611 16.3114 14.6393 15.8117 14.9732C15.3119 15.3072 14.9224 15.7818 14.6924 16.3371C14.4624 16.8924 14.4022 17.5034 14.5195 18.0929C14.6367 18.6824 14.9262 19.2238 15.3512 19.6488C15.7762 20.0738 16.3177 20.3633 16.9071 20.4805C17.4966 20.5978 18.1077 20.5376 18.663 20.3076C19.2182 20.0776 19.6929 19.6881 20.0268 19.1883C20.3607 18.6886 20.5389 18.101 20.5389 17.5C20.5389 16.694 20.2188 15.9211 19.6488 15.3512C19.0789 14.7813 18.306 14.4611 17.5 14.4611V14.4611Z" fill="black"/>
<path d="M17.5 0C7.83501 0 0 7.83501 0 17.5C0 27.165 7.83501 35 17.5 35C27.165 35 35 27.165 35 17.5C35 7.83501 27.165 0 17.5 0ZM26.6146 21.3623C26.6145 22.7553 26.0611 24.0912 25.0761 25.0761C24.0912 26.0611 22.7553 26.6145 21.3623 26.6146H13.6377C12.2447 26.6145 10.9088 26.0611 9.92383 25.0762C8.93884 24.0912 8.38544 22.7553 8.38537 21.3623V13.6377C8.38543 12.2447 8.93881 10.9088 9.92381 9.92383C10.9088 8.93885 12.2447 8.38548 13.6377 8.38544H21.3623C22.7553 8.38549 24.0912 8.93887 25.0761 9.92385C26.0611 10.9088 26.6145 12.2447 26.6146 13.6377V21.3623Z" fill="black"/>
</svg>
