<svg width="35" height="35" viewBox="0 0 35 35" fill="none" xmlns="http://www.w3.org/2000/svg">
<path fillRule="evenodd" clipRule="evenodd" d="M17.5 0C27.1585 0 35 7.8415 35 17.5C35 27.1585 27.1585 35 17.5 35C7.8415 35 0 27.1585 0 17.5C0 7.8415 7.8415 0 17.5 0ZM27.7156 26.723V26.3784L26.1167 24.8087C25.9755 24.7012 25.9055 24.5243 25.9348 24.3493V12.8157C25.9055 12.6407 25.9755 12.4638 26.1167 12.3562L27.7539 10.7866V10.442H22.0861L18.0457 20.5207L13.4501 10.442H7.50456V10.7866L9.41944 13.0933C9.6075 13.2627 9.70341 13.5116 9.67791 13.7633V22.8275C9.73362 23.1543 9.63061 23.4884 9.40037 23.7271L7.24609 26.3401V26.6846H13.3544V26.3401L11.2002 23.7271C10.9682 23.4889 10.8588 23.157 10.9034 22.8275V14.9885L16.265 26.6846H16.8873L21.4925 14.9885V24.3111C21.4925 24.5598 21.4925 24.6077 21.3296 24.7704L19.6733 26.3784V26.723H27.7156Z" fill="black"/>
</svg>
