<svg width="35" height="35" viewBox="0 0 35 35" fill="none" xmlns="http://www.w3.org/2000/svg">
<path d="M17.5 0C7.83501 0 0 7.83501 0 17.5C0 27.165 7.83501 35 17.5 35C27.165 35 35 27.165 35 17.5C35 7.83501 27.165 0 17.5 0ZM26.5958 11.0698L23.4877 25.9082C23.4501 26.0877 23.368 26.2548 23.2489 26.3943C23.1298 26.5337 22.9776 26.641 22.8063 26.7063C22.6349 26.7716 22.4499 26.7928 22.2683 26.7679C22.0866 26.743 21.9141 26.6729 21.7666 26.564L17.2456 23.2239L14.5065 25.8079C14.4707 25.8417 14.4285 25.868 14.3823 25.8853C14.3362 25.9027 14.287 25.9106 14.2378 25.9088C14.1885 25.9069 14.1401 25.8952 14.0954 25.8744C14.0507 25.8537 14.0106 25.8242 13.9774 25.7878L13.9186 25.7231L14.3945 21.1174L22.9725 13.2799C23.0149 13.2412 23.0413 13.188 23.0464 13.1308C23.0516 13.0736 23.0351 13.0166 23.0002 12.971C22.9654 12.9253 22.9147 12.8944 22.8582 12.8843C22.8017 12.8742 22.7434 12.8857 22.6949 12.9164L11.7247 19.8597L7 18.2729C6.87437 18.2307 6.76488 18.1507 6.68655 18.0438C6.60822 17.9369 6.56488 17.8084 6.56248 17.6759C6.56009 17.5434 6.59875 17.4134 6.67317 17.3037C6.74758 17.1941 6.85411 17.1101 6.97813 17.0634L25.4639 10.0997C25.6065 10.046 25.7609 10.0317 25.9109 10.0581C26.061 10.0845 26.2012 10.1508 26.3168 10.2499C26.4325 10.3491 26.5195 10.4775 26.5685 10.6217C26.6176 10.7659 26.627 10.9207 26.5958 11.0698Z" fill="black"/>
</svg>
